<svg width="26" height="26" viewBox="0 0 26 26" fill="none" xmlns="http://www.w3.org/2000/svg">
<path d="M6.34217 9.593C6.70999 9.21735 7.03086 8.88083 7.39086 8.51301C8.14999 9.27214 8.90129 10.0313 9.65259 10.7904C9.75433 10.8921 9.84824 11.0017 9.95781 11.0956C10.3022 11.393 10.7169 11.3852 11.0065 11.08C11.2726 10.7982 11.2804 10.3678 10.983 10.0547C10.4274 9.48344 9.86389 8.92779 9.30042 8.36431C9.01868 8.08258 8.72912 7.79301 8.36129 7.42519C8.71346 7.17475 9.01868 6.88519 9.37868 6.72867C9.88737 6.50171 10.4274 6.35302 10.9674 6.1965C11.0848 6.16519 11.2804 6.1965 11.3665 6.28258C13.9021 8.80257 16.4221 11.3226 18.9421 13.8582C19.0204 13.9365 19.0439 14.1399 19.0126 14.2573C18.8717 14.7582 18.723 15.2591 18.5273 15.7365C18.4178 16.0025 18.2613 16.2765 18.0578 16.4799C15.4282 19.1251 12.7908 21.7625 10.1535 24.3921C9.03433 25.5112 7.78216 25.5034 6.66304 24.3843C4.78478 22.506 2.93783 20.5808 1.0048 18.7573C-0.33346 17.4895 -0.364764 15.9556 1.22393 14.6799C1.3961 14.8834 1.56045 15.1182 1.7561 15.3217C2.37436 15.9556 3.00827 16.5817 3.63435 17.2078C4.02565 17.5991 4.44826 17.6382 4.76913 17.3173C5.09783 16.9965 5.06652 16.5738 4.68304 16.1825C3.94739 15.4391 3.21174 14.7034 2.4761 13.9678C2.38218 13.8739 2.2961 13.7799 2.21784 13.6939C2.56218 13.3417 2.89088 13.013 3.2587 12.6373C3.96305 13.3495 4.66739 14.0617 5.37174 14.7739C5.47348 14.8756 5.57521 14.9773 5.67695 15.0791C6.10739 15.5017 6.54565 15.5486 6.86651 15.2199C7.18738 14.8912 7.14043 14.4765 6.71782 14.0617C5.99782 13.3417 5.27782 12.6217 4.56565 11.9017C4.47174 11.8078 4.39348 11.7139 4.29174 11.6121C4.64391 11.2834 4.98043 10.9626 5.36391 10.6026C5.8413 11.08 6.34999 11.5965 6.85869 12.113C7.17956 12.4339 7.50042 12.7626 7.82912 13.0834C8.2126 13.4513 8.61955 13.4747 8.93259 13.1539C9.24564 12.8408 9.22998 12.4182 8.86216 12.0504C8.00912 11.2365 7.17173 10.4147 6.34217 9.593Z" fill="#B7B8C5"/>
<path d="M13.5813 2.88611C14.0743 2.88611 14.4421 3.12089 14.7786 3.45741C16.7352 5.42175 18.6995 7.38609 20.6638 9.35043C21.0317 9.71826 21.4073 10.0861 21.7673 10.4539C22.4951 11.1896 22.4951 12.0191 21.7751 12.7626C20.9534 13.6078 20.7577 13.6078 19.9204 12.7704C17.3691 10.2191 14.8178 7.66783 12.2586 5.10871C11.6404 4.49045 11.6482 4.20871 12.2743 3.58263C12.7986 3.06611 13.1273 2.88611 13.5813 2.88611Z" fill="#B7B8C5"/>
<path d="M22.4091 4.7878C23.8804 6.44693 23.6769 8.35649 22.91 9.39735C20.5543 7.03388 18.1909 4.67041 15.8274 2.30694C16.7352 1.35999 18.5978 1.51651 20.3978 2.75303C21.0787 2.06433 21.7595 1.36782 22.4561 0.679123C22.9648 0.178255 23.5987 0.0608639 24.17 0.32695C25.1091 0.773035 25.3047 1.93912 24.5613 2.7139C23.9743 3.32433 23.3639 3.91129 22.7613 4.50607C22.6595 4.61563 22.5343 4.69389 22.4091 4.7878Z" fill="#B7B8C5"/>
<path d="M2.19436 11.5261C1.84219 11.8861 1.51349 12.2148 1.1848 12.5435C-0.169111 10.8922 -0.341284 7.92608 1.64654 5.91478C3.44653 4.09131 6.54565 3.89566 8.36912 5.49218C8.05608 5.78174 7.76651 6.07913 7.42999 6.34522C7.35173 6.40783 7.14825 6.3687 7.03869 6.31391C5.33261 5.42174 3.24305 5.93826 2.21784 7.55043C1.45871 8.74782 1.41958 9.99216 2.04566 11.26C2.09262 11.3539 2.1474 11.44 2.19436 11.5261Z" fill="#B7B8C5"/>
<path d="M12.6343 24.0008C12.9786 23.6643 13.3073 23.3434 13.6438 23.0147C15.3421 23.9225 16.9856 23.8443 18.3473 22.3808C19.5995 21.0347 19.6073 19.4851 18.7464 17.8965C19.0595 17.5521 19.3647 17.1999 19.6777 16.8556C20.8438 18.0138 21.4542 20.9643 19.6073 23.2025C17.9012 25.2686 14.5986 25.6599 12.6343 24.0008Z" fill="#B7B8C5"/>
</svg>
