<svg width="26" height="23" viewBox="0 0 26 23" fill="none" xmlns="http://www.w3.org/2000/svg">
<path d="M16.959 1.3938C16.959 1.37427 16.959 1.34985 16.9541 1.33032C16.876 1.00806 16.5977 0.763916 16.251 0.763916H12.8037C12.6182 0.763916 12.4521 0.837158 12.3252 0.949463L12.3203 0.954346V2.04321C12.3203 2.04321 12.3252 2.04321 12.3252 2.0481C12.4521 2.1604 12.623 2.22876 12.8037 2.22876H15.6406C16.0068 4.08423 16.373 5.92017 16.7441 7.78052C14.9131 7.88306 13.165 8.20044 11.4854 8.86938C9.80078 9.53833 8.32129 10.5295 7.04199 11.8577C6.51953 11.218 6.0166 10.5784 5.46973 9.9436H6.73926C7.27637 9.9436 7.72559 9.50415 7.72559 8.96704V8.78149C7.72559 8.68872 7.7207 8.60083 7.71582 8.50806C7.71582 8.47876 7.71582 8.44458 7.71094 8.41528C7.62305 6.88696 6.36328 5.64673 4.84473 5.54907H2.35938C1.82227 5.54907 1.38281 5.99341 1.38281 6.53052V8.96704C1.38281 9.47974 1.77832 9.89966 2.28613 9.93872C2.65723 9.93384 3.0332 9.93384 3.4043 9.9436C3.40918 9.9436 3.40918 9.9436 3.41406 9.9436C3.5166 9.94849 3.64355 10.0071 3.70703 10.0803C4.10254 10.5442 4.4834 11.0227 4.86914 11.4915C5.27441 11.9895 5.67969 12.4875 6.06543 12.9563C5.64062 13.6936 5.23047 14.4114 4.81055 15.1389C4.76172 15.1292 4.69336 15.1194 4.62012 15.1047C2.69141 14.6848 0.860352 15.7053 0.21582 17.5657C0.12793 17.8196 0.0791016 18.0833 0.015625 18.342V19.1721C0.0302734 19.2112 0.0498047 19.2454 0.0595703 19.2844C0.376953 21.2961 2.05664 22.6682 4.07812 22.4973C5.68457 22.3606 6.76855 21.4768 7.33008 19.9778C7.83301 18.6204 7.41309 16.9993 6.3291 16.0276C6.19238 15.9055 6.1582 15.8176 6.24121 15.6418C7.35449 13.2395 9.1416 11.5354 11.5342 10.4417C13.082 9.73364 14.7275 9.40161 16.417 9.27954C16.6221 9.26489 16.832 9.27954 17.0469 9.27954C17.1836 9.98755 17.3105 10.6809 17.4424 11.3694V11.3743C17.4424 11.3743 17.4473 11.3743 17.4521 11.3743C17.9209 11.262 18.3848 11.1448 18.873 11.0276C18.2383 7.82446 17.5938 4.61157 16.959 1.3938ZM3.79004 19.5432C3.36035 19.553 2.99414 19.1917 2.99902 18.7571C3.00391 18.3323 3.35059 17.9905 3.78027 17.9905C4.20996 17.9905 4.55664 18.3323 4.56152 18.7571C4.55664 19.177 4.21484 19.5334 3.79004 19.5432Z" fill="#B7B8C5"/>
<path d="M25.0156 16.2913V17.2678C24.8837 17.8 24.8154 18.3616 24.6103 18.8645C23.7851 20.8665 22.2958 22.092 20.1474 22.4436C17.3154 22.9075 14.7128 21.1692 13.829 18.5911C12.8671 15.7932 14.3759 12.5266 17.1494 11.4622C17.247 11.4231 17.3447 11.3938 17.4423 11.3596C17.4472 11.3596 17.4472 11.3596 17.4472 11.3596V11.3645C17.7744 13.0149 18.1064 14.6653 18.4335 16.3157C18.4628 16.4573 18.4921 16.5989 18.5165 16.7356C18.5263 16.7893 18.541 16.843 18.5654 16.926C19.039 16.8333 19.5029 16.7405 19.9912 16.6428C19.9521 16.4524 19.9179 16.2668 19.8789 16.0813C19.8496 15.9446 19.8251 15.8079 19.7958 15.6663C19.7861 15.6125 19.7763 15.5588 19.7665 15.5051C19.4736 14.0305 19.1806 12.5559 18.8779 11.0325C19.3564 11.0715 19.8105 11.0667 20.2499 11.1448C22.7304 11.5696 24.6054 13.5325 24.957 16.0374C24.9765 16.1204 24.996 16.2034 25.0156 16.2913Z" fill="#B7B8C5"/>
<path d="M16.9736 1.50146C16.9736 1.70166 16.8955 1.88232 16.7637 2.01416C16.6318 2.146 16.4561 2.229 16.251 2.229H12.8037C12.6182 2.229 12.4521 2.16064 12.3252 2.04834C12.3252 2.04834 12.3203 2.04834 12.3203 2.04346C12.1738 1.91162 12.0762 1.71631 12.0762 1.50146C12.0762 1.30127 12.1592 1.12061 12.291 0.98877C12.3008 0.979004 12.3105 0.964355 12.3203 0.95459L12.3252 0.949707C12.4521 0.837402 12.623 0.76416 12.8037 0.76416H16.251C16.5928 0.76416 16.876 1.0083 16.9541 1.33057C16.959 1.3501 16.959 1.37451 16.959 1.39404C16.959 1.42822 16.9736 1.46729 16.9736 1.50146Z" fill="#B7B8C5"/>
<path d="M20.3775 16.4529C20.3775 17.0293 19.9086 17.4981 19.3323 17.4981C18.756 17.4981 18.2822 17.0293 18.2822 16.4529C18.2822 16.2967 18.3262 16.1452 18.375 16.0085C18.375 16.1159 18.3994 16.2185 18.4385 16.3113C18.5557 16.5799 18.8244 16.7655 19.1321 16.7655C19.5277 16.7655 19.85 16.4627 19.8842 16.0769C19.8842 16.0573 19.8891 16.0329 19.8891 16.0134C19.8891 15.8864 19.8598 15.7692 19.8061 15.6666C19.7963 15.6129 19.7865 15.5592 19.7768 15.5054C20.1284 15.6715 20.3775 16.0329 20.3775 16.4529Z" fill="#B7B8C5"/>
</svg>
