<svg width="26" height="38" viewBox="0 0 26 38" fill="none" xmlns="http://www.w3.org/2000/svg">
<path d="M20.1565 23.1061C21.7694 24.8415 23.3619 26.5565 25.0156 28.343C21.7694 30.5582 17.3798 31.14 13.5721 31.4361C13.5721 33.2838 13.5721 35.1315 13.5721 37.0098C12.1838 37.0098 12.2859 37.0098 10.918 37.0098C10.918 35.1621 10.918 33.3246 10.918 31.4361C7.49824 31.1911 3.45577 30.6602 0.444336 28.9146C7.4574 28.5676 14.1438 27.0976 20.1565 23.1061ZM19.3704 27.3528C19.3806 26.7913 18.9111 26.3115 18.3496 26.3217C17.8086 26.3217 17.3492 26.7811 17.339 27.3221C17.3288 27.8836 17.7984 28.3634 18.3598 28.3532C18.9009 28.3532 19.3602 27.8938 19.3704 27.3528Z" fill="#B7B8C5"/>
<path d="M0.015625 27.7305C1.85311 25.7501 3.69059 23.7595 5.50766 21.8097C4.49705 21.2993 3.52726 20.8093 2.49623 20.2887C2.66977 20.0845 2.74123 19.9825 2.8331 19.8906C3.87434 18.7881 4.91558 17.6958 5.94662 16.5933C6.16099 16.3585 6.31412 16.2973 6.63057 16.4606C10.0401 18.2675 13.6436 19.5537 17.4411 20.2377C18.4721 20.4214 19.5338 20.4929 20.575 20.6256C20.718 20.646 20.8711 20.6664 21.0548 20.7991C20.3607 21.1156 19.6665 21.4218 18.9213 21.7587C19.0642 21.9424 19.2071 22.116 19.4113 22.361C13.5211 26.1687 6.97765 27.608 0.015625 27.7305ZM8.63139 22.2385C8.09035 22.2487 7.64119 22.7081 7.64119 23.2491C7.64119 23.8105 8.12097 24.2801 8.68243 24.2699C9.22347 24.2597 9.67263 23.8003 9.67263 23.2593C9.67263 22.6876 9.19284 22.2283 8.63139 22.2385Z" fill="#B7B8C5"/>
<path d="M6.96753 15.501C7.5494 14.8375 8.08023 14.225 8.63147 13.5819C8.05981 13.3777 7.5494 13.2042 7.02878 13.0204C10.1219 12.3059 13.0823 11.3769 15.6241 9.34546C16.5327 10.3969 17.4208 11.4381 18.4008 12.5815C17.5229 12.9388 16.7266 13.2756 15.8283 13.6431C17.6454 15.6235 19.4624 17.5937 21.3407 19.6558C16.1856 19.3598 11.5 17.8183 6.96753 15.501ZM13.7458 14.5823C13.2048 14.5925 12.7556 15.0519 12.7454 15.5929C12.7454 16.1544 13.215 16.6239 13.7764 16.6137C14.3175 16.6035 14.7666 16.1442 14.7768 15.6031C14.7768 15.0417 14.3073 14.5721 13.7458 14.5823Z" fill="#B7B8C5"/>
<path d="M12.2246 5.38464C13.1536 6.46672 14.0315 7.48754 14.9502 8.56962C12.5105 10.499 9.71341 11.3667 6.61011 11.9485C8.52926 9.71294 10.3463 7.57942 12.2246 5.38464Z" fill="#B7B8C5"/>
<path d="M14.0214 4.4148L14.3889 6.81374L12.2554 5.65L10.0913 6.74228L10.5404 4.35355L8.82544 2.62836L11.2346 2.32211L12.3473 0.157959L13.3885 2.35273L15.7875 2.74065L14.0214 4.4148Z" fill="#B7B8C5"/>
<path d="M15.1239 37.1118H9.43794C8.65191 37.1118 8.00879 36.4789 8.00879 35.6827C8.00879 34.8967 8.6417 34.2535 9.43794 34.2535H15.1239C15.91 34.2535 16.5531 34.8865 16.5531 35.6827C16.5429 36.4687 15.91 37.1118 15.1239 37.1118Z" fill="#B7B8C5"/>
</svg>
