<svg width="26" height="26" viewBox="0 0 26 26" fill="none" xmlns="http://www.w3.org/2000/svg">
<path d="M12.343 5.45626C13.4627 5.44301 14.377 5.31051 15.1919 4.77385C16.1459 4.14445 16.5699 3.19702 16.7356 2.11046C16.7753 1.85207 16.7687 1.58043 16.7753 1.31542C16.782 0.924525 17.047 0.719139 17.418 0.845021C18.0275 1.05703 18.6371 1.27567 19.24 1.49431C19.4718 1.58043 19.664 2.06409 19.5778 2.30922C19.1406 3.53491 18.8689 4.7871 18.8822 6.09892C18.8954 7.33786 19.187 8.50393 19.8362 9.57061C19.9157 9.70311 19.9157 9.89525 19.9356 10.0609C19.982 10.3855 20.0151 10.7168 20.0681 11.0414C20.3795 13.029 20.4193 15.0233 20.2801 17.0308C20.2404 17.5608 20.3994 18.1107 20.4921 18.6473C20.6777 19.7074 20.883 20.7608 21.0752 21.8209C21.1348 22.1588 21.0288 22.3377 20.6975 22.4304C18.9286 22.9406 17.153 23.4441 15.384 23.9476C15.0395 24.047 14.8474 23.9344 14.7215 23.5766C14.2842 22.3178 13.8469 21.059 13.4163 19.8001C13.3301 19.5484 13.1976 19.3364 12.9591 19.2039C12.6345 19.025 12.3231 19.0714 12.0448 19.3165C11.7864 19.5484 11.6076 19.8134 11.4949 20.1513C11.1239 21.2842 10.7198 22.4039 10.3355 23.5302C10.1897 23.9609 10.0108 24.0536 9.58682 23.9277C7.86423 23.4375 6.14164 22.9406 4.41242 22.4503C3.99503 22.331 3.88902 22.1786 3.96853 21.7414C4.22029 20.3567 4.47868 18.9786 4.73044 17.5939C4.77019 17.362 4.77682 17.1169 4.75694 16.8784C4.56481 14.6986 4.68406 12.5321 5.07496 10.3723C5.08158 10.3259 5.10809 10.2663 5.09484 10.2265C4.97558 9.81574 5.22072 9.5176 5.39298 9.19296C6.00913 8.0269 6.21452 6.77471 6.12839 5.46951C6.06214 4.36971 5.81037 3.31628 5.43935 2.2761C5.3466 2.02433 5.57186 1.55393 5.83025 1.4678C6.40665 1.26242 6.98306 1.05041 7.55947 0.845021C7.99011 0.692638 8.26175 0.891398 8.2485 1.34855C8.22863 2.06409 8.36776 2.7465 8.67252 3.39578C9.22905 4.58834 10.2295 5.1515 11.475 5.35026C11.8129 5.42976 12.1641 5.44301 12.343 5.45626ZM16.5633 11.651C16.6362 11.6112 16.7091 11.5781 16.782 11.5383C17.5902 11.0679 18.001 10.3524 17.9546 9.42485C17.9083 8.4443 17.2524 7.64263 16.3447 7.37762C15.4105 7.10598 14.4565 7.43062 13.8602 8.23229C13.7807 8.33829 13.7144 8.37804 13.5753 8.33829C12.8664 8.13953 12.1508 8.13953 11.4419 8.33829C11.2962 8.37804 11.2365 8.33167 11.1637 8.22566C10.5873 7.44387 9.6597 7.1126 8.75203 7.35774C7.81785 7.6095 7.18845 8.35154 7.06919 9.34534C6.96318 10.2133 7.46009 11.1077 8.28825 11.5582C8.35451 11.5913 8.41414 11.6311 8.46714 11.6642C8.21537 13.6319 9.1893 15.0763 10.3487 15.7653C11.7931 16.6266 13.2705 16.6465 14.6883 15.7521C16.1658 14.8113 16.7356 13.4067 16.5633 11.651Z" fill="#B7B8C5"/>
<path d="M22.8441 9.81575C22.7513 9.78925 22.6055 9.74949 22.4532 9.70974C21.9033 9.57061 21.3467 9.4381 20.8034 9.28572C20.7306 9.26584 20.6643 9.17971 20.6179 9.10683C19.9819 8.09978 19.7566 6.98672 19.7898 5.81404C19.8163 4.82023 20.0217 3.85956 20.333 2.92538C20.4921 2.44836 20.7902 2.3556 21.201 2.66037C22.3803 3.54154 23.5596 4.42934 24.7323 5.31051C25.037 5.53577 25.0834 5.70803 24.931 6.03267C24.4143 7.17886 23.8909 8.31842 23.3741 9.4646C23.2747 9.66336 23.1554 9.81575 22.8441 9.81575Z" fill="#B7B8C5"/>
<path d="M5.25382 6.23806C5.26707 6.94035 5.05506 8.05341 4.4389 9.06708C4.35277 9.21284 4.24676 9.26584 4.0745 9.29897C3.5511 9.4116 3.03432 9.57061 2.51755 9.71637C2.43142 9.74287 2.34529 9.76937 2.25253 9.78925C1.98089 9.84888 1.80201 9.76275 1.68275 9.51098C1.1461 8.3383 0.609446 7.15898 0.0794182 5.97967C-0.0398381 5.71466 0.00653929 5.53577 0.231801 5.36351C1.45749 4.43597 2.68981 3.50842 3.92212 2.59412C4.22689 2.36886 4.5449 2.47486 4.67079 2.83926C4.99543 3.78668 5.20744 4.76061 5.25382 6.23806Z" fill="#B7B8C5"/>
<path d="M12.4358 4.56845C12.1045 4.5287 11.7004 4.50882 11.3095 4.41607C10.0838 4.13118 9.4014 3.41564 9.18939 1.95807C9.15626 1.74605 9.16289 1.52742 9.17614 1.31541C9.19602 0.931136 9.44115 0.772128 9.8188 0.864883C10.3621 0.99739 10.9054 1.14315 11.4553 1.25578C12.6743 1.50754 13.8536 1.2624 15.0197 0.924511C15.1058 0.898009 15.192 0.871508 15.2847 0.851632C15.5829 0.785378 15.828 0.944387 15.8479 1.24253C15.9406 2.68023 15.3642 4.19743 13.423 4.4757C13.1248 4.52208 12.8201 4.53533 12.4358 4.56845Z" fill="#B7B8C5"/>
<path d="M21.4595 23.9476C21.4595 24.1927 21.3403 24.3451 21.0421 24.4246C19.6574 24.8023 18.2661 25.1733 16.8814 25.5509C16.5965 25.6304 16.3116 25.7099 16.0201 25.7828C15.669 25.8756 15.4371 25.7497 15.3509 25.4251C15.2648 25.1137 15.3973 24.9017 15.7418 24.8023C17.3982 24.3252 19.0611 23.8482 20.7175 23.3778C21.1746 23.2453 21.4529 23.464 21.4595 23.9476Z" fill="#B7B8C5"/>
<path d="M3.57104 24.0139C3.57767 23.4573 3.85593 23.2453 4.31308 23.3778C5.96942 23.8548 7.63238 24.3252 9.28872 24.8023C9.63986 24.9017 9.77237 25.1402 9.66637 25.4582C9.58024 25.7232 9.35497 25.8557 9.08333 25.7828C7.36074 25.3257 5.63815 24.8619 3.91556 24.3981C3.6903 24.3451 3.57104 24.1795 3.57104 24.0139Z" fill="#B7B8C5"/>
<path d="M15.6953 12.2671C15.7019 14.0162 14.2775 15.4473 12.5284 15.4606C10.7859 15.4738 9.34161 14.0361 9.33498 12.3003C9.32836 10.5313 10.7462 9.10684 12.5152 9.10684C14.2642 9.09359 15.6887 10.5114 15.6953 12.2671ZM12.5417 11.8232C11.7864 11.81 11.1768 12.393 11.157 13.1483C11.1371 13.9036 11.7201 14.5198 12.4754 14.5396C13.2439 14.5595 13.8601 13.9698 13.8733 13.2013C13.88 12.446 13.2969 11.8365 12.5417 11.8232ZM11.1437 11.3595C11.3955 11.3661 11.6075 11.1607 11.6075 10.9089C11.6075 10.6638 11.3888 10.4518 11.1503 10.4518C10.9118 10.4518 10.7131 10.6505 10.7064 10.8957C10.6932 11.1475 10.8853 11.3528 11.1437 11.3595ZM13.8733 10.4518C13.6282 10.4518 13.4162 10.6704 13.4228 10.9156C13.4295 11.1607 13.6348 11.3595 13.8932 11.3595C14.1384 11.3528 14.3305 11.1607 14.3305 10.9156C14.3305 10.6704 14.1185 10.4518 13.8733 10.4518Z" fill="#B7B8C5"/>
<path d="M8.71891 10.7499C8.16238 10.4451 7.90399 9.93497 7.99012 9.32544C8.063 8.80204 8.50027 8.33164 9.02367 8.21901C9.57358 8.09975 10.1102 8.30514 10.4216 8.76891C9.64646 9.23931 9.07667 9.89522 8.71891 10.7499Z" fill="#B7B8C5"/>
<path d="M14.5955 8.75567C14.9797 8.26539 15.5296 8.07988 16.0729 8.23889C16.6096 8.3979 17.0005 8.86167 17.0468 9.40495C17.0932 9.98798 16.8282 10.4783 16.3114 10.7433C15.947 9.90848 15.3905 9.24594 14.5955 8.75567Z" fill="#B7B8C5"/>
<path d="M12.5152 13.6319C12.2635 13.6319 12.0647 13.4332 12.0647 13.1748C12.0647 12.923 12.2701 12.7242 12.5285 12.7309C12.7736 12.7375 12.9657 12.9296 12.9657 13.1748C12.9657 13.4265 12.767 13.6319 12.5152 13.6319Z" fill="#B7B8C5"/>
</svg>
