<svg width="63" height="51" viewBox="0 0 63 51" fill="none" xmlns="http://www.w3.org/2000/svg">
<circle cx="49.9298" cy="43.6762" r="5.58351" fill="white"/>
<circle cx="12.6077" cy="43.6762" r="5.58351" fill="white"/>
<path d="M2.16168 29.8638V39.1423H5.16554C5.6328 37.6515 7.78221 34.6699 12.6417 34.6699C17.5013 34.6699 19.9622 38.0075 20.5852 39.6763H35.6712V29.8638H2.16168Z" fill="white"/>
<path d="M35.4709 25.9254H2.16166C2.02817 20.207 1.76117 7.99585 1.76117 4.89856C1.76117 1.80127 4.25324 1.16046 5.49928 1.22721H31.933C34.6565 1.22721 35.4264 3.98629 35.4709 5.36583V25.9254Z" fill="white"/>
<path d="M38.9489 10.1887V18.8896H53.8848L49.8368 11.3519L47.6034 10.1887H38.9489Z" fill="white"/>
<path d="M38.8559 23.0308V39.6417H41.9733C43.1366 38.0287 46.375 34.8026 50.0229 34.8026C53.6708 34.8026 56.63 38.0287 57.6537 39.6417H60.3989L61.7482 39.0833V25.6364L55.9321 23.0308H38.8559Z" fill="white"/>
<path d="M36.3855 40.5711H19.7539L19.52 40.0564C18.292 37.343 15.5083 35.5301 12.6077 35.5301C9.70716 35.5301 6.92353 37.3547 5.69546 40.0564L5.46154 40.5711H2.95862C1.78903 40.5711 0.865051 39.6237 0.865051 38.419V28.5126H36.3855V40.5711ZM20.8651 38.8167H34.6311V30.267H2.61944V38.4307C2.61944 38.5009 2.63113 38.8284 2.95862 38.8284H4.35043C5.97616 35.7406 9.15745 33.7874 12.6077 33.7874C16.058 33.7757 19.2393 35.7406 20.8651 38.8167Z" fill="#74CCD8"/>
<path d="M12.6077 50.2669C8.9703 50.2669 6.01123 47.3078 6.01123 43.6821C6.01123 40.0446 8.9703 37.0856 12.6077 37.0856C16.2452 37.0856 19.2042 40.0446 19.2042 43.6821C19.1925 47.3078 16.2335 50.2669 12.6077 50.2669ZM12.6077 38.84C9.94106 38.84 7.76562 41.0037 7.76562 43.6821C7.76562 46.3487 9.92936 48.5125 12.596 48.5125C15.2627 48.5125 17.4264 46.337 17.4381 43.6704C17.4381 41.0037 15.2744 38.84 12.6077 38.84Z" fill="#74CCD8"/>
<path d="M60.7156 40.571H56.9262L56.6922 40.0564C55.4642 37.3429 52.6805 35.5301 49.78 35.5301C46.8794 35.5301 44.0957 37.3546 42.8677 40.0564L42.6338 40.571H37.8969V21.9277H55.932L61.5694 24.4073C62.3531 24.7815 62.8326 25.5769 62.8092 26.4424V38.4307C62.8092 39.6353 61.8852 40.571 60.7156 40.571ZM58.0373 38.8166H60.7156C61.0314 38.8166 61.0548 38.4891 61.0548 38.419V26.3839C61.0548 26.2201 60.9729 26.0564 60.8209 25.9745L55.5694 23.6704H39.663V38.8166H41.5343C43.1601 35.7289 46.3414 33.7757 49.7917 33.7757C53.2303 33.7757 56.4115 35.7406 58.0373 38.8166Z" fill="#74CCD8"/>
<path d="M55.2419 19.916H37.8969V9.0388H46.6338C48.4349 9.01541 50.0841 9.99786 50.9262 11.6002L55.2419 19.916ZM39.6513 18.1616H52.3531L49.3589 12.4072C48.8443 11.4131 47.815 10.7932 46.6922 10.7932H46.6338H39.6396V18.1616H39.6513Z" fill="#74CCD8"/>
<path d="M36.3855 26.8634H0.865051V5.10901C0.865051 2.44235 2.99371 0.266907 5.60189 0.266907H31.6253C32.9118 0.278603 34.1048 0.781526 35.0054 1.69381C35.906 2.60609 36.3855 3.81077 36.3855 5.09732L35.5083 5.10901H36.3855V26.8634ZM2.61944 25.109H34.6311V5.08562C34.6428 4.26691 34.3271 3.50667 33.754 2.92188C33.1809 2.34878 32.4206 2.02129 31.6136 2.02129H5.5902C3.91768 2.02129 2.60774 3.37802 2.60774 5.10901V25.109H2.61944Z" fill="#74CCD8"/>
<path d="M49.78 50.2669C46.1425 50.2669 43.1835 47.3079 43.1835 43.6821C43.1835 40.0447 46.1425 37.0856 49.7683 37.0856C53.4057 37.0856 56.3648 40.0447 56.3648 43.6704C56.3648 47.3079 53.4174 50.2669 49.78 50.2669ZM49.78 38.84C47.1133 38.84 44.9496 41.0155 44.9496 43.6821C44.9496 46.3488 47.125 48.5125 49.78 48.5125V49.3897V48.5125C52.4466 48.5125 54.6104 46.3371 54.6104 43.6704C54.6221 41.0038 52.4466 38.84 49.78 38.84Z" fill="#74CCD8"/>
</svg>
