<svg width="56" height="51" viewBox="0 0 56 51" fill="none" xmlns="http://www.w3.org/2000/svg">
<path d="M54.8283 15.8172L28.3119 48.9039L1.56104 15.8172L11.8859 1.03381H44.386L54.8283 15.8172Z" fill="white"/>
<path d="M0.392883 15.5504C3.75491 10.6565 7.1305 5.77614 10.479 0.868665C10.845 0.339959 11.2652 0.109497 11.916 0.109497C22.7477 0.123054 33.5658 0.123054 44.3975 0.109497C45.0482 0.109497 45.4685 0.326402 45.8345 0.855108C49.0474 5.57279 52.2874 10.2634 55.5274 14.9675C56.0697 15.7538 56.0561 15.9978 55.4596 16.7434C46.6885 27.6293 37.931 38.5017 29.1735 49.3876C28.4007 50.3501 27.9263 50.3501 27.1535 49.3876C18.3824 38.5017 9.61135 27.6022 0.84025 16.7163C0.677571 16.5265 0.542006 16.3096 0.40644 16.1062C0.392883 15.9165 0.392883 15.7402 0.392883 15.5504ZM19.2229 16.7841C22.1918 26.4906 25.1336 36.1428 28.0889 45.7951C28.1296 45.7951 28.1703 45.7951 28.2245 45.7951C31.1798 36.1428 34.1216 26.4906 37.0905 16.7841C31.0985 16.7841 25.215 16.7841 19.2229 16.7841ZM3.26688 16.7841C10.7908 26.1245 18.2469 35.3701 25.6894 44.6293C25.7165 44.6157 25.7572 44.5886 25.7843 44.575C22.951 35.3159 20.1312 26.0568 17.2979 16.7841C12.648 16.7841 8.02523 16.7841 3.26688 16.7841ZM30.5291 44.5615C30.5562 44.575 30.5969 44.6021 30.624 44.6157C38.0801 35.3566 45.5362 26.111 53.0466 16.7841C48.2882 16.7841 43.6654 16.7841 39.0155 16.7841C36.1822 26.0568 33.3624 35.3159 30.5291 44.5615ZM19.7652 14.8726C25.4047 14.8726 30.9358 14.8726 36.5482 14.8726C33.742 10.7921 30.9765 6.76577 28.1567 2.67169C25.337 6.76577 22.5714 10.7921 19.7652 14.8726ZM11.3195 2.92926C8.55394 6.95556 5.84262 10.887 3.1042 14.8862C7.63209 14.8862 12.0515 14.8862 16.5523 14.8862C14.8035 10.9005 13.0818 6.95556 11.3195 2.92926ZM39.7611 14.8862C44.2755 14.8862 48.6949 14.8862 53.2093 14.8862C50.4573 10.887 47.746 6.94201 44.994 2.94282C43.2316 6.96912 41.5099 10.9005 39.7611 14.8862ZM18.152 13.9507C20.9175 9.92445 23.6288 5.99305 26.3673 2.00742C21.8394 2.00742 17.4199 2.00742 12.9327 2.00742C14.6679 5.97949 16.3896 9.91089 18.152 13.9507ZM38.1615 13.9507C39.9238 9.91089 41.6455 5.97949 43.3943 2.00742C38.8935 2.00742 34.4741 2.00742 29.9597 2.00742C32.6846 5.99305 35.3959 9.92445 38.1615 13.9507Z" fill="#74CCD8"/>
</svg>
