<svg width="117" height="34" viewBox="0 0 117 34" fill="none" xmlns="http://www.w3.org/2000/svg">
<path d="M51.5188 11.5902C52.3784 12.5981 52.7934 13.7245 52.7934 14.9991C52.7638 16.4516 52.2598 17.667 51.3113 18.6452C50.3627 19.6234 49.177 20.0976 47.8134 20.0976H42.0924C41.0846 20.0976 40.4917 19.8309 40.3139 19.2677C40.225 19.0305 40.1953 18.6452 40.1953 18.1412V6.10636C40.1953 5.75065 40.1953 5.51351 40.225 5.33566C40.2546 5.18744 40.3139 4.97994 40.4324 4.77245C40.6399 4.38709 41.2032 4.1796 42.1221 4.1796H47.5763C48.9102 4.1796 50.007 4.65388 50.9259 5.5728C51.8745 6.52136 52.3488 7.64777 52.3488 8.95205C52.3488 9.93025 52.082 10.7899 51.5188 11.5902ZM48.9695 14.7916C48.9695 14.4359 48.9399 14.1691 48.8509 13.9616C48.762 13.7541 48.6434 13.6059 48.4359 13.517C48.1395 13.3984 47.7542 13.3391 47.2206 13.3391C46.687 13.3391 46.3017 13.2502 46.0349 13.0427C45.7681 12.8352 45.6495 12.4202 45.6495 11.7977C45.6495 11.1752 45.7978 10.7602 46.0645 10.5527C46.3313 10.3452 46.776 10.2563 47.3984 10.2563C47.9913 10.2563 48.3174 10.1081 48.4359 9.81168C48.4656 9.66347 48.4952 9.39668 48.4952 9.04097C48.4952 8.68526 48.3767 8.41848 48.1395 8.27027C47.9024 8.12205 47.5467 8.06277 47.0724 8.06277H44.0488V16.2738H47.6059C48.5249 16.2441 48.9695 15.7698 48.9695 14.7916Z" fill="url(#paint0_linear_464_22178)"/>
<path d="M82.7917 17.4298C82.9992 17.9634 83.1177 18.3191 83.1177 18.5562C83.1177 19.1194 82.6731 19.5641 81.7838 19.9494C81.3095 20.1569 80.9538 20.2458 80.6574 20.2458C80.361 20.2458 80.1535 20.1866 79.9756 20.0383C79.7978 19.8901 79.6495 19.7716 79.5606 19.6234C79.4124 19.3566 78.8492 18.0523 77.871 15.6809L77.1892 15.7105H74.4621V18.1709C74.4621 18.4969 74.4621 18.7637 74.4325 18.9119C74.4028 19.0601 74.3435 19.2676 74.225 19.4751C74.0175 19.8605 73.4543 20.068 72.5353 20.068C71.5275 20.068 70.9346 19.8012 70.7568 19.2676C70.6679 19.0305 70.6382 18.6451 70.6382 18.1412V6.10635C70.6382 5.78028 70.6382 5.5135 70.6679 5.36529C70.6975 5.21708 70.7568 5.00958 70.8754 4.80208C71.0829 4.41673 71.6461 4.20923 72.565 4.20923H77.2485C78.5231 4.20923 79.7681 4.68351 80.9538 5.60243C81.5467 6.04707 82.0209 6.66956 82.3767 7.41062C82.762 8.18133 82.9399 9.04096 82.9399 9.95988C82.9399 11.5902 82.4063 12.9538 81.3095 13.9913C81.606 14.7916 82.1099 15.918 82.7917 17.4298ZM74.4325 11.8866H77.2189C77.6339 11.8866 78.0489 11.7384 78.4638 11.4124C78.8788 11.0863 79.0863 10.612 79.0863 9.98953C79.0863 9.36703 78.8788 8.86311 78.4638 8.53704C78.0489 8.21097 77.6042 8.06276 77.1596 8.06276H74.4325V11.8866V11.8866Z" fill="url(#paint1_linear_464_22178)"/>
<path d="M96.0715 4.86138C96.2197 4.5946 96.4272 4.44639 96.694 4.35746C96.9608 4.26853 97.3165 4.23889 97.7315 4.23889C98.1465 4.23889 98.4726 4.26853 98.7393 4.35746C99.0061 4.41675 99.184 4.50567 99.3026 4.62424C99.4211 4.74281 99.5101 4.89103 99.5693 5.06888C99.6583 5.30602 99.6879 5.66173 99.6879 6.16566V18.2005C99.6879 18.5562 99.6879 18.7934 99.6583 18.9712C99.6286 19.1195 99.5693 19.3269 99.4508 19.5344C99.2433 19.9198 98.6801 20.1273 97.7611 20.1273C97.1979 20.1273 96.8126 20.0977 96.5754 20.0087C96.3679 19.9198 96.1901 19.7716 96.0419 19.5937C92.7812 15.2659 90.6469 12.4202 89.6094 11.0863V18.2302C89.6094 18.5859 89.6094 18.823 89.5798 19.0009C89.5502 19.1491 89.4909 19.3566 89.3723 19.5641C89.1648 19.9494 88.6016 20.1569 87.6827 20.1569C86.7934 20.1569 86.2302 19.9494 86.0227 19.5641C85.9041 19.3566 85.8448 19.1491 85.8152 18.9712C85.7856 18.7934 85.7856 18.5562 85.7856 18.2005V6.07673C85.7856 5.51352 85.8448 5.12817 85.9931 4.86138C86.1413 4.5946 86.3488 4.44639 86.6155 4.35746C86.8823 4.26853 87.238 4.23889 87.6827 4.23889C88.1273 4.23889 88.4534 4.26853 88.7202 4.35746C88.9869 4.44639 89.1648 4.53532 89.2537 4.62424C89.313 4.65389 89.4909 4.86139 89.7577 5.18745C92.8108 9.33741 94.8562 12.0942 95.864 13.3984V6.07673C95.864 5.51352 95.9233 5.12817 96.0715 4.86138Z" fill="url(#paint2_linear_464_22178)"/>
<path d="M113.323 4.80208C113.472 4.56494 113.679 4.41673 113.946 4.3278C114.213 4.23887 114.568 4.20923 114.983 4.20923C115.398 4.20923 115.725 4.23887 115.962 4.3278C116.199 4.38708 116.406 4.47601 116.525 4.59458C116.643 4.68351 116.762 4.86136 116.821 5.03922C116.91 5.27636 116.94 5.66171 116.94 6.16564V12.7166C116.94 14.6138 116.347 16.3627 115.161 17.9337C114.568 18.6748 113.827 19.2676 112.938 19.7123C112.019 20.1569 111.011 20.3941 109.915 20.3941C108.818 20.3941 107.81 20.1569 106.891 19.7123C105.972 19.238 105.261 18.6451 104.697 17.9041C103.512 16.3627 102.949 14.6434 102.949 12.687V6.16564C102.949 5.80993 102.949 5.57279 102.978 5.39493C103.008 5.21708 103.067 5.03922 103.186 4.83172C103.304 4.62422 103.482 4.47601 103.779 4.38708C104.045 4.29816 104.431 4.26851 104.875 4.26851C105.35 4.26851 105.705 4.29816 105.972 4.38708C106.239 4.47601 106.446 4.62422 106.535 4.83172C106.713 5.15779 106.802 5.63207 106.802 6.19528V12.7166C106.802 13.6059 107.01 14.4359 107.454 15.2363C107.662 15.6513 107.988 15.9773 108.432 16.2145C108.877 16.4516 109.381 16.5702 109.974 16.5702C111.041 16.5702 111.812 16.1848 112.345 15.3845C112.879 14.6138 113.116 13.6948 113.116 12.6574V5.98778C113.086 5.42457 113.175 5.03922 113.323 4.80208Z" fill="url(#paint3_linear_464_22178)"/>
<path d="M63.9687 2.72711H59.463C58.7219 2.72711 58.0994 2.10462 58.0994 1.36356C58.0994 0.622493 58.7219 0 59.463 0H63.9687C64.7097 0 65.3322 0.622493 65.3322 1.36356C65.3322 2.10462 64.7097 2.72711 63.9687 2.72711Z" fill="#74CCD8"/>
<path d="M59.3444 16.2737H66.014C66.34 16.2737 66.6068 16.2737 66.755 16.3034C66.9329 16.333 67.1108 16.3923 67.3183 16.5109C67.7036 16.7184 67.9111 17.2816 67.9111 18.2005C67.9111 19.2084 67.6443 19.8012 67.1108 19.9791C66.8736 20.068 66.4883 20.0976 65.9843 20.0976H57.388C56.3802 20.0976 55.7873 19.8309 55.6094 19.2676C55.5205 19.0305 55.4909 18.6748 55.4909 18.1709V6.13599C55.4909 5.39493 55.6391 4.89101 55.9059 4.62422C56.1727 4.35744 56.7062 4.20923 57.4769 4.20923H66.014C66.34 4.20923 66.6068 4.20923 66.755 4.23887C66.9033 4.26851 67.1108 4.3278 67.3183 4.44637C67.7036 4.65387 67.9111 5.21708 67.9111 6.13599C67.9111 7.14384 67.6443 7.73669 67.1108 7.91455C66.8736 8.00347 66.4883 8.03312 65.9843 8.03312H59.3148V10.2267H63.6129C63.939 10.2267 64.2058 10.2267 64.354 10.2563C64.5319 10.2859 64.7097 10.3452 64.9172 10.4638C65.3026 10.6713 65.5101 11.2345 65.5101 12.1534C65.5101 13.1613 65.2433 13.7541 64.6801 13.932C64.4429 14.0209 64.0576 14.0506 63.5536 14.0506H59.3148V16.2737H59.3444Z" fill="url(#paint4_linear_464_22178)"/>
<path d="M48.4359 25.3147C48.9102 25.5519 49.1473 25.789 49.1473 26.0854C49.1473 26.204 49.0881 26.4115 48.9695 26.6487L45.7088 33.2886C45.6199 33.4664 45.5013 33.6147 45.3235 33.7036C45.1456 33.8221 44.9677 33.8518 44.7602 33.8518H44.6417C44.4342 33.8518 44.2563 33.7925 44.0785 33.7036C43.9006 33.6147 43.782 33.4664 43.6931 33.2886L40.4324 26.6487C40.3139 26.3819 40.2546 26.204 40.2546 26.0854C40.2546 25.8187 40.4917 25.5519 40.966 25.3147C41.2328 25.1665 41.4403 25.1072 41.5588 25.1072C41.7071 25.1072 41.796 25.1369 41.8849 25.1665C41.9442 25.1962 42.0331 25.2555 42.0924 25.3444C42.1517 25.4333 42.2406 25.5519 42.2999 25.6704C42.3592 25.789 42.5074 26.1151 42.7445 26.6487C42.9817 27.1822 43.2485 27.7751 43.5449 28.3679C43.8117 28.9904 44.0785 29.5536 44.3452 30.0872C44.5824 30.6208 44.7306 30.9172 44.7602 31.0061L47.1316 25.8187C47.1909 25.6704 47.2502 25.5519 47.3095 25.463C47.4577 25.2555 47.6356 25.1369 47.8431 25.1369C48.0506 25.1369 48.1691 25.1665 48.4359 25.3147Z" fill="#74CCD8"/>
<path d="M52.7044 31.7768H56.3505C56.5283 31.7768 56.6765 31.7768 56.7655 31.8065C56.8544 31.8065 56.973 31.8657 57.0915 31.925C57.299 32.0436 57.4176 32.34 57.4176 32.8439C57.4176 33.4072 57.2694 33.7332 56.973 33.8221C56.8247 33.8814 56.6469 33.8814 56.3505 33.8814H51.6669C51.1037 33.8814 50.7777 33.7332 50.6887 33.4368C50.6295 33.3182 50.6295 33.1107 50.6295 32.8439V26.2337C50.6295 25.8187 50.7184 25.5519 50.8666 25.4037C51.0148 25.2555 51.3112 25.1962 51.7262 25.1962H56.4098C56.5876 25.1962 56.7358 25.1962 56.8247 25.2258C56.9137 25.2555 57.0322 25.2851 57.1508 25.3444C57.3583 25.4629 57.4769 25.7594 57.4769 26.2633C57.4769 26.8265 57.3287 27.1526 57.0322 27.2415C56.884 27.3008 56.7062 27.3008 56.4098 27.3008H52.7637V28.4865H55.1055C55.2833 28.4865 55.4315 28.4865 55.5205 28.5161C55.6094 28.5161 55.728 28.5754 55.8465 28.6347C56.054 28.7533 56.1726 29.0497 56.1726 29.5536C56.1726 30.1168 56.0244 30.4429 55.728 30.5318C55.5798 30.5911 55.4019 30.5911 55.1055 30.5911H52.7934V31.7768H52.7044Z" fill="#74CCD8"/>
<path d="M116.258 25.3147C116.732 25.5519 116.969 25.789 116.969 26.0854C116.969 26.204 116.91 26.4115 116.792 26.6487L113.531 33.2886C113.442 33.4664 113.323 33.6147 113.146 33.7036C112.968 33.8221 112.79 33.8518 112.582 33.8518H112.464C112.256 33.8518 112.078 33.7925 111.901 33.7036C111.723 33.6147 111.604 33.4664 111.515 33.2886L108.255 26.6487C108.136 26.3819 108.077 26.204 108.077 26.0854C108.077 25.8187 108.314 25.5519 108.788 25.3147C109.055 25.1665 109.262 25.1072 109.381 25.1072C109.529 25.1072 109.618 25.1369 109.707 25.1665C109.766 25.1962 109.855 25.2555 109.915 25.3444C109.974 25.4333 110.063 25.5519 110.122 25.6704C110.181 25.789 110.33 26.1151 110.567 26.6487C110.804 27.1822 111.071 27.7751 111.367 28.3679C111.634 28.9904 111.901 29.5536 112.167 30.0872C112.405 30.6208 112.553 30.9172 112.582 31.0061L114.954 25.8187C115.013 25.6704 115.072 25.5519 115.132 25.463C115.28 25.2555 115.458 25.1369 115.665 25.1369C115.873 25.1369 116.021 25.1665 116.258 25.3147Z" fill="#74CCD8"/>
<path d="M58.9887 26.2337C58.9887 26.0558 58.9887 25.9076 59.0183 25.8187C59.048 25.7297 59.0776 25.6112 59.1369 25.4926C59.2555 25.2851 59.5519 25.1665 60.0558 25.1665C60.619 25.1665 60.9451 25.3147 61.034 25.6112C61.0637 25.7594 61.0933 25.9372 61.0933 26.2337V32.8143C61.0933 32.9922 61.0933 33.1404 61.0637 33.2293C61.0637 33.3182 61.0044 33.4072 60.9451 33.5257C60.8265 33.7332 60.5301 33.8518 60.0262 33.8518C59.463 33.8518 59.1369 33.7036 59.048 33.4072C58.9887 33.2886 58.9887 33.0811 58.9887 32.8143V26.2337Z" fill="#74CCD8"/>
<path d="M66.5772 29.4943C67.7925 30.6504 68.6521 31.5397 69.1561 32.1029C69.4228 32.3993 69.5414 32.6364 69.5414 32.8439C69.5414 33.0514 69.3932 33.2886 69.0671 33.5554C68.7411 33.8221 68.5039 33.9703 68.2964 33.9703C68.0889 33.9703 67.8518 33.7925 67.5554 33.4664L64.9468 30.5022V32.8143C64.9468 32.9921 64.9468 33.1404 64.9172 33.2293C64.9172 33.3182 64.8579 33.4071 64.7986 33.5257C64.68 33.7332 64.3836 33.8518 63.8797 33.8518C63.3165 33.8518 62.9904 33.7036 62.9015 33.4071C62.8422 33.2886 62.8422 33.0811 62.8422 32.8143V26.2336C62.8422 26.0558 62.8422 25.9076 62.8718 25.8186C62.9015 25.7297 62.9311 25.6112 62.9904 25.4926C63.109 25.2851 63.4054 25.1665 63.9093 25.1665C64.4725 25.1665 64.7986 25.3147 64.8875 25.6112C64.9172 25.7594 64.9468 25.9372 64.9468 26.2336V28.4865C66.0139 27.2711 66.9032 26.2929 67.5554 25.5222C67.8221 25.1962 68.0593 25.0479 68.2668 25.0479C68.4743 25.0479 68.7411 25.1962 69.0375 25.4629C69.3339 25.7297 69.5118 25.9669 69.5118 26.1744C69.5118 26.3819 69.3932 26.619 69.1561 26.8858C68.7114 27.4193 68 28.1308 67.0218 29.0793L66.5772 29.4943Z" fill="#74CCD8"/>
<path d="M76.2703 25.789L79.4717 32.3993C79.6199 32.6661 79.6792 32.8736 79.6792 32.9922C79.6792 33.2886 79.442 33.5257 78.9974 33.7629C78.7306 33.9111 78.5231 33.9704 78.3749 33.9704C78.2267 33.9704 78.1081 33.9407 77.9895 33.8518C77.9006 33.7925 77.8117 33.7036 77.782 33.6147C77.7524 33.5257 77.6635 33.4072 77.6042 33.2589L76.9817 31.9843H73.6914L73.0689 33.2589C72.9799 33.4072 72.9207 33.5257 72.891 33.6147C72.8614 33.7036 72.7724 33.7629 72.6835 33.8222C72.5946 33.9111 72.4464 33.9407 72.2982 33.9407C72.15 33.9407 71.9425 33.8814 71.6757 33.7332C71.231 33.5257 70.9939 33.2589 70.9939 32.9625C70.9939 32.8143 71.0532 32.6365 71.2014 32.3697L74.3435 25.789C74.4324 25.6112 74.551 25.463 74.7289 25.3444C74.9067 25.2258 75.0846 25.1665 75.2921 25.1665C75.7367 25.1665 76.0628 25.374 76.2703 25.789ZM75.2921 28.6347L74.5214 30.2651H76.0924L75.2921 28.6347Z" fill="#74CCD8"/>
<path d="M83.2363 32.1029H86.4673C86.7341 32.1029 86.9119 32.1325 87.0305 32.1918C87.1491 32.2511 87.238 32.34 87.2677 32.4586C87.2973 32.5772 87.3269 32.755 87.3269 32.9625C87.3269 33.17 87.2973 33.3479 87.2677 33.4664C87.238 33.585 87.1491 33.6739 87.0602 33.7332C86.9119 33.8222 86.7044 33.8518 86.4377 33.8518H82.1691C81.6059 33.8518 81.2799 33.7036 81.1909 33.4072C81.1316 33.2886 81.1317 33.0811 81.1317 32.8143V26.2337C81.1317 26.0558 81.1316 25.9076 81.1613 25.8187C81.1909 25.7297 81.2206 25.6112 81.2799 25.4926C81.3984 25.2851 81.6949 25.1665 82.1988 25.1665C82.762 25.1665 83.0881 25.3147 83.177 25.6112C83.2066 25.7594 83.2363 25.9372 83.2363 26.2337V32.1029Z" fill="#74CCD8"/>
<path d="M103.956 32.1029H107.187C107.454 32.1029 107.632 32.1325 107.751 32.1918C107.869 32.2511 107.958 32.34 107.988 32.4586C108.017 32.5772 108.047 32.755 108.047 32.9625C108.047 33.17 108.017 33.3479 107.988 33.4664C107.958 33.585 107.869 33.6739 107.78 33.7332C107.632 33.8222 107.425 33.8518 107.158 33.8518H102.889C102.326 33.8518 102 33.7036 101.911 33.4072C101.852 33.2886 101.852 33.0811 101.852 32.8143V26.2337C101.852 26.0558 101.852 25.9076 101.881 25.8187C101.911 25.7297 101.941 25.6112 102 25.4926C102.119 25.2851 102.415 25.1665 102.919 25.1665C103.482 25.1665 103.808 25.3147 103.897 25.6112C103.927 25.7594 103.956 25.9372 103.956 26.2337V32.1029Z" fill="#74CCD8"/>
<path d="M89.0462 32.6364C88.8387 32.3697 88.7498 32.1622 88.7498 31.9547C88.7498 31.7472 88.9276 31.4804 89.2537 31.1543C89.4612 30.9765 89.6687 30.8579 89.8762 30.8579C90.0837 30.8579 90.4098 31.0654 90.7951 31.4507C90.9137 31.599 91.0619 31.7175 91.2694 31.8361C91.4769 31.9547 91.6548 32.014 91.8326 32.014C92.5737 32.014 92.9294 31.7175 92.9294 31.1247C92.9294 30.9468 92.8405 30.7986 92.633 30.68C92.4255 30.5615 92.1883 30.4725 91.8919 30.4133C91.5955 30.354 91.2694 30.265 90.9137 30.1465C90.558 30.0279 90.2319 29.8797 89.9355 29.7018C89.6391 29.524 89.3723 29.2868 89.1944 28.9015C88.9869 28.5458 88.898 28.1011 88.898 27.5972C88.898 26.9154 89.1648 26.2929 89.6687 25.789C90.1726 25.2851 90.8841 25.0183 91.7733 25.0183C92.2476 25.0183 92.6922 25.0776 93.0776 25.1962C93.463 25.3147 93.7297 25.4333 93.878 25.5815L94.1744 25.8187C94.4115 26.0558 94.5301 26.2337 94.5301 26.4115C94.5301 26.5597 94.4412 26.7969 94.2337 27.0636C93.9669 27.449 93.7001 27.6565 93.4037 27.6565C93.2258 27.6565 93.0183 27.5676 92.7812 27.4194C92.7515 27.3897 92.7219 27.3601 92.633 27.3008C92.5737 27.2415 92.5144 27.1822 92.4551 27.1526C92.2772 27.0636 92.0697 27.0044 91.8326 27.0044C91.5658 27.0044 91.3583 27.0636 91.1805 27.1822C91.0026 27.3008 90.9137 27.4786 90.9137 27.6861C90.9137 27.8936 91.0026 28.0715 91.2101 28.2197C91.4176 28.3679 91.6548 28.4568 91.9512 28.4865C92.2476 28.5458 92.5737 28.6051 92.9294 28.694C93.2851 28.7829 93.6112 28.9015 93.9076 29.0497C94.204 29.1979 94.4708 29.435 94.6487 29.7908C94.8561 30.1465 94.9451 30.5615 94.9451 31.095C94.9451 31.599 94.8561 32.0732 94.6487 32.4586C94.4412 32.8439 94.1744 33.1404 93.8483 33.3775C93.1962 33.7925 92.5144 34 91.803 34C91.4176 34 91.0916 33.9407 90.7358 33.8518C90.4098 33.7629 90.143 33.6443 89.9355 33.5257C89.5205 33.2589 89.2241 33.0218 89.0462 32.7847V32.6364Z" fill="#74CCD8"/>
<path d="M98.2354 33.8814C99.2504 33.8814 100.073 33.0586 100.073 32.0436C100.073 31.0286 99.2504 30.2057 98.2354 30.2057C97.2204 30.2057 96.3976 31.0286 96.3976 32.0436C96.3976 33.0586 97.2204 33.8814 98.2354 33.8814Z" fill="#74CCD8"/>
<path d="M36.7271 3.1421C36.7271 4.7428 35.4229 5.78029 33.8222 5.78029H28.8719V9.69311C27.2712 8.24062 25.9076 7.88491 23.7141 8.06277V0.474274H33.8222C35.4229 0.474274 36.7271 1.51176 36.7271 3.1421Z" fill="#74CCD8"/>
<path d="M17.6966 1.51177V10.4342C15.3252 8.92241 13.3984 7.76635 11.2049 7.76635H11.1456C5.89887 7.76635 1.65998 12.3906 1.65998 17.7855C1.65998 17.9337 1.65998 18.1709 1.65998 18.3191C0.622493 16.2738 0 14.0506 0 11.6495C0 4.1796 5.21709 0.355713 11.9459 0.355713H12.0349C13.6356 0.355713 16.5109 0.918921 17.6966 1.51177Z" fill="url(#paint5_linear_464_22178)"/>
<path d="M31.4804 18.1709C31.4804 20.4237 30.354 22.4987 28.7236 24.2773C27.8047 23.7141 26.7079 23.388 25.5519 23.388C22.1726 23.388 19.4455 26.1151 19.4455 29.4943C19.4455 29.9093 19.4752 30.2947 19.5641 30.68C18.3191 31.2729 17.4891 31.599 17.4891 31.599C17.4891 31.599 16.7777 31.3025 15.7106 30.7986C15.7995 30.3836 15.8588 29.939 15.8588 29.4943C15.8588 26.1151 13.1317 23.388 9.7524 23.388C8.50741 23.388 7.35135 23.7437 6.40279 24.3958C4.71317 22.5876 3.52747 20.3941 3.52747 18.1116C3.52747 13.7838 6.93636 10.1674 11.1456 10.1674H11.2049C13.7541 10.1674 16.1255 11.5902 17.5187 13.7838C18.9416 11.5606 21.3426 9.93027 23.8919 9.93027C28.0715 9.95991 31.4804 13.8431 31.4804 18.1709Z" fill="url(#paint6_linear_464_22178)"/>
<path d="M9.51525 33.7332C11.8563 33.7332 13.7541 31.8354 13.7541 29.4943C13.7541 27.1533 11.8563 25.2555 9.51525 25.2555C7.17418 25.2555 5.27637 27.1533 5.27637 29.4943C5.27637 31.8354 7.17418 33.7332 9.51525 33.7332Z" fill="#74CCD8"/>
<path d="M25.5519 33.7332C27.8929 33.7332 29.7908 31.8354 29.7908 29.4943C29.7908 27.1533 27.8929 25.2555 25.5519 25.2555C23.2108 25.2555 21.313 27.1533 21.313 29.4943C21.313 31.8354 23.2108 33.7332 25.5519 33.7332Z" fill="#74CCD8"/>
<defs>
<linearGradient id="paint0_linear_464_22178" x1="46.4944" y1="4.1796" x2="46.4944" y2="20.0976" gradientUnits="userSpaceOnUse">
<stop stop-color="#ED9BC1"/>
<stop offset="1" stop-color="#ED9BB9"/>
</linearGradient>
<linearGradient id="paint1_linear_464_22178" x1="76.878" y1="4.20923" x2="76.878" y2="20.2458" gradientUnits="userSpaceOnUse">
<stop stop-color="#ED9BC1"/>
<stop offset="1" stop-color="#ED9BB9"/>
</linearGradient>
<linearGradient id="paint2_linear_464_22178" x1="92.7367" y1="4.23889" x2="92.7367" y2="20.1569" gradientUnits="userSpaceOnUse">
<stop stop-color="#ED9BC1"/>
<stop offset="1" stop-color="#ED9BB9"/>
</linearGradient>
<linearGradient id="paint3_linear_464_22178" x1="109.944" y1="4.20923" x2="109.944" y2="20.3941" gradientUnits="userSpaceOnUse">
<stop stop-color="#ED9BC1"/>
<stop offset="1" stop-color="#ED9BB9"/>
</linearGradient>
<linearGradient id="paint4_linear_464_22178" x1="61.701" y1="4.20923" x2="61.701" y2="20.0976" gradientUnits="userSpaceOnUse">
<stop stop-color="#ED9BC1"/>
<stop offset="1" stop-color="#ED9BB9"/>
</linearGradient>
<linearGradient id="paint5_linear_464_22178" x1="8.8483" y1="0.355713" x2="8.8483" y2="18.3191" gradientUnits="userSpaceOnUse">
<stop stop-color="#ED9BC1"/>
<stop offset="1" stop-color="#ED9BB9"/>
</linearGradient>
<linearGradient id="paint6_linear_464_22178" x1="17.5039" y1="9.93027" x2="17.5039" y2="31.599" gradientUnits="userSpaceOnUse">
<stop stop-color="#ED9BC1"/>
<stop offset="1" stop-color="#ED9BB9"/>
</linearGradient>
</defs>
</svg>
