<svg width="21" height="14" viewBox="0 0 21 14" fill="none" xmlns="http://www.w3.org/2000/svg">
<path d="M13.6352 7.10284L20.4998 11.4444V2.58008L13.6352 7.10284Z" fill="#686877"/>
<path d="M0.136108 2.58008V11.4444L7.00069 7.10284L0.136108 2.58008Z" fill="#686877"/>
<path d="M19.227 0H1.40878C0.773435 0 0.270453 0.474473 0.174744 1.08335L10.3179 7.76465L20.461 1.08131C20.3653 0.472436 19.8623 0 19.227 0Z" fill="#686877"/>
<path d="M12.4683 7.87259L10.6682 9.05979C10.5603 9.12903 10.4401 9.16364 10.3179 9.16364C10.1958 9.16364 10.0756 9.12903 9.96769 9.05979L8.16754 7.87259L0.176849 12.9248C0.274595 13.5296 0.77554 14 1.40885 14H19.227C19.8603 14 20.3613 13.5296 20.459 12.9248L12.4683 7.87259Z" fill="#686877"/>
</svg>
