<svg width="17" height="16" viewBox="0 0 17 16" fill="none" xmlns="http://www.w3.org/2000/svg">
<path d="M7.26637 9.36811C5.73643 7.83817 5.39199 6.31143 5.31349 5.69786C5.29106 5.52964 5.35034 5.35983 5.47049 5.23807L6.70566 4.00291C6.88669 3.82188 6.91873 3.53671 6.78415 3.32044L4.81365 0.260557C4.66306 0.0186499 4.35227 -0.069462 4.09594 0.0587007L0.938338 1.54539C0.733278 1.64471 0.609921 1.86419 0.635554 2.09328C0.802165 3.66648 1.48623 7.53699 5.29106 11.3418C9.09589 15.1466 12.9632 15.8323 14.5396 15.9973C14.7687 16.0198 14.9866 15.8996 15.0875 15.6945L16.5774 12.5305C16.7055 12.2774 16.6174 11.9666 16.3771 11.8176L13.3172 9.84872C13.0978 9.71095 12.8158 9.74619 12.6348 9.92722L11.3996 11.1624C11.2811 11.2841 11.108 11.3402 10.9398 11.3194C10.3262 11.2409 8.79631 10.8981 7.26637 9.36811Z" fill="#686877"/>
</svg>
