<svg width="26" height="26" viewBox="0 0 26 26" fill="none" xmlns="http://www.w3.org/2000/svg">
<path d="M19.0179 25.1661C17.4717 25.1661 15.9255 25.1661 14.3792 25.1661C13.541 25.1661 13.0771 24.7104 13.0771 23.864C13.0771 20.7553 13.0771 17.6384 13.0771 14.5297C13.0771 13.6834 13.5329 13.2358 14.3792 13.2358C17.488 13.2358 20.6048 13.2358 23.7135 13.2358C24.5599 13.2358 25.0156 13.6915 25.0156 14.5379C25.0156 17.6466 25.0156 20.7634 25.0156 23.8722C25.0156 24.7104 24.5518 25.1661 23.7135 25.1743C22.151 25.1661 20.5885 25.1661 19.0179 25.1661ZM19.0423 22.3178C19.7747 22.3178 20.5072 22.3178 21.2396 22.3178C21.7686 22.3178 22.0208 21.9435 21.8092 21.4633C21.0768 19.8032 20.3363 18.143 19.6038 16.4828C19.498 16.2387 19.3271 16.0841 19.0505 16.0841C18.7738 16.0841 18.611 16.2468 18.4971 16.491C17.7646 18.143 17.0322 19.7869 16.2998 21.4389C16.0801 21.9435 16.3324 22.3178 16.8776 22.3178C17.6019 22.3178 18.3262 22.3178 19.0423 22.3178Z" fill="#B7B8C5"/>
<path d="M18.4972 6.1394C18.4972 7.68563 18.4972 9.23185 18.4972 10.7781C18.4972 11.6488 18.0496 12.1046 17.187 12.1046C14.0782 12.1046 10.9614 12.1046 7.85265 12.1046C7.01443 12.1046 6.5587 11.6488 6.5587 10.7944C6.5587 7.69377 6.5587 4.59318 6.5587 1.48446C6.55056 0.613688 6.99816 0.157959 7.86079 0.157959C10.9695 0.157959 14.0864 0.157959 17.1951 0.157959C18.0333 0.157959 18.489 0.621826 18.489 1.46818C18.4972 3.02254 18.4972 4.5769 18.4972 6.1394ZM10.4161 7.60425C10.4161 7.82397 10.4161 8.01115 10.4161 8.20646C10.4161 8.74357 10.7579 8.98771 11.2543 8.81681C11.6124 8.69474 11.9623 8.5564 12.3204 8.4506C12.4425 8.40991 12.5971 8.40991 12.7273 8.4506C13.1017 8.56453 13.476 8.71916 13.8504 8.84123C14.2735 8.97957 14.6072 8.75171 14.6316 8.30412C14.6398 8.19018 14.6398 8.07625 14.6235 7.97046C14.4933 7.22176 14.6642 6.57072 15.2338 6.04175C15.2989 5.97664 15.3478 5.9034 15.4047 5.83016C15.7303 5.38257 15.6163 4.9187 15.0873 4.82918C14.1433 4.65828 13.476 4.19442 13.0366 3.33179C12.8087 2.89233 12.3041 2.92489 12.0112 3.32365C11.7914 3.63289 11.5961 3.95028 11.3683 4.25138C11.2869 4.36532 11.1485 4.45483 11.0183 4.50366C10.6765 4.62573 10.3185 4.70711 9.96853 4.81291C9.46398 4.96753 9.32563 5.37443 9.63487 5.79761C9.74881 5.95223 9.8546 6.11499 9.99295 6.25334C10.351 6.64396 10.5707 7.07528 10.4161 7.60425Z" fill="#B7B8C5"/>
<path d="M0.015625 19.1928C0.015625 17.6384 0.015625 16.084 0.015625 14.5215C0.015625 13.6752 0.471354 13.2276 1.31771 13.2276C4.42643 13.2276 7.54329 13.2276 10.652 13.2276C11.4984 13.2276 11.9541 13.6833 11.9541 14.5297C11.9541 17.6384 11.9541 20.7553 11.9541 23.864C11.9541 24.7022 11.4902 25.1661 10.652 25.1661C7.54329 25.1661 4.42643 25.1661 1.31771 25.1661C0.479492 25.1661 0.023763 24.7103 0.015625 23.864C0.015625 22.3096 0.015625 20.7471 0.015625 19.1928ZM5.98079 22.6026C7.86068 22.6026 9.39876 21.0645 9.39876 19.1928C9.39876 17.321 7.8444 15.7748 5.98079 15.7829C4.11719 15.7911 2.58724 17.321 2.5791 19.1846C2.57096 21.0564 4.10905 22.6026 5.98079 22.6026Z" fill="#B7B8C5"/>
</svg>
