<svg width="23" height="17" viewBox="0 0 23 17" fill="none" xmlns="http://www.w3.org/2000/svg">
<path d="M2.6868 10.5378C2.04709 10.5378 1.45713 10.5378 0.867168 10.5378C0.739225 10.5378 0.604175 10.5378 0.476232 10.5378C0.199022 10.5449 0 10.4453 0 10.1468C0 9.85539 0.220346 9.74877 0.48334 9.74166C1.03065 9.73455 1.57085 9.74166 2.11816 9.74166C2.29586 9.74166 2.46645 9.74166 2.62994 9.74166C2.65837 9.69191 2.67969 9.67058 2.67969 9.64926C2.72234 8.86028 2.72234 8.86028 3.52554 8.86028C4.07996 8.86028 4.64148 8.86028 5.1959 8.86028C5.47311 8.86028 5.70056 8.78209 5.7361 8.46934C5.76454 8.22056 5.54419 8.04997 5.1959 8.04286C4.53486 8.03576 3.86672 8.04286 3.20568 8.04286C2.82185 8.04286 2.69391 7.91492 2.6868 7.5382C2.67969 7.34629 2.6868 7.16148 2.6868 6.96957C2.6868 6.45779 2.79342 6.35118 3.31941 6.35118C3.86672 6.35118 4.40692 6.35118 4.95423 6.35118C5.35938 6.35118 5.5513 6.21612 5.52997 5.93892C5.50154 5.59063 5.25276 5.54798 4.96845 5.54798C3.99466 5.54798 3.02798 5.54087 2.05419 5.55509C1.75566 5.55509 1.52821 5.48401 1.49267 5.15704C1.47134 4.91537 1.6988 4.759 2.04709 4.75189C2.22478 4.75189 2.40248 4.74478 2.58018 4.74478C2.6015 4.74478 2.62283 4.73057 2.64415 4.72346C2.65837 4.70213 2.67258 4.68792 2.67969 4.66659C2.72945 3.85629 2.73656 3.85629 3.55397 3.85629C4.05152 3.85629 4.54908 3.85629 5.04663 3.85629C5.31674 3.85629 5.52997 3.76389 5.52997 3.46535C5.52997 3.16682 5.32384 3.06731 5.05374 3.06731C3.61083 3.06731 2.16081 3.06731 0.717902 3.06731C0.625498 3.06731 0.525987 3.06731 0.433584 3.06731C0.17059 3.05309 0 2.91804 0.00710794 2.64794C0.0142159 2.39916 0.184806 2.27122 0.433584 2.26411C1.05197 2.257 1.66326 2.26411 2.28165 2.26411C2.40959 2.26411 2.53753 2.26411 2.65837 2.26411C2.70102 1.90872 2.70102 1.58175 2.7792 1.28322C2.93558 0.650611 3.46867 0.20281 4.11549 0.131731C4.22922 0.103299 4.35716 0.0961914 4.49222 0.0961914C7.56995 0.0961914 10.6477 0.0961914 13.7325 0.0961914C14.1803 0.0961914 14.5997 0.167271 14.9622 0.465804C15.3674 0.806985 15.5593 1.26189 15.5593 1.78077C15.5664 5.69725 15.5593 9.62083 15.5593 13.5373C15.5593 13.9496 15.4171 14.0775 14.9977 14.0846C13.633 14.0846 12.2754 14.0846 10.9107 14.0846C10.2568 14.0846 10.2354 14.0633 10.1715 13.4236C10.0293 11.9593 9.02708 10.8505 7.59128 10.552C5.80718 10.1824 3.99466 11.5258 3.83118 13.3312C3.82407 13.4165 3.81696 13.4947 3.80275 13.5799C3.74588 14.0349 3.64637 14.113 3.14171 14.0846C2.80763 14.0704 2.69391 13.9282 2.69391 13.5089C2.6868 12.5422 2.6868 11.5684 2.6868 10.5378ZM4.24344 10.5378C4.44246 10.5378 4.66281 10.5875 4.8405 10.5235C4.99688 10.4667 5.1959 10.3032 5.21723 10.161C5.23855 10.0473 5.03242 9.79852 4.90448 9.78431C4.48511 9.73455 4.05152 9.72745 3.63926 9.78431C3.51132 9.79852 3.33362 10.0473 3.32651 10.2037C3.31941 10.3103 3.53975 10.4809 3.68902 10.5306C3.8525 10.5804 4.05863 10.5306 4.24344 10.5378ZM7.22877 5.54798C7.72633 5.54798 7.93246 5.43425 7.93956 5.15704C7.94667 4.87983 7.72633 4.75189 7.24299 4.75189C6.74543 4.75189 6.54641 4.86562 6.5393 5.14283C6.5393 5.43425 6.73832 5.54798 7.22877 5.54798Z" fill="#686877"/>
<path d="M16.597 13.6937C16.597 12.3645 17.6632 11.2983 18.9853 11.2983C20.3216 11.2983 21.3878 12.3787 21.3878 13.715C21.3807 15.03 20.3003 16.0962 18.9782 16.0891C17.649 16.0891 16.597 15.0229 16.597 13.6937Z" fill="#686877"/>
<path d="M4.59171 13.6937C4.59881 12.3716 5.665 11.2983 6.98708 11.2983C8.32337 11.2983 9.39667 12.3859 9.38245 13.7221C9.37535 15.0371 8.28783 16.1033 6.97286 16.0962C5.65079 16.0891 4.59171 15.0158 4.59171 13.6937Z" fill="#686877"/>
<path d="M16.334 8.48353C16.334 7.73719 16.3411 6.99086 16.334 6.24453C16.334 5.93888 16.4264 5.72565 16.7534 5.69721C17.0235 5.66878 17.1941 5.89624 17.1941 6.25874C17.1941 6.88424 17.1941 7.51685 17.1941 8.14234C17.2012 9.19432 17.8338 9.84114 18.9 9.85536C19.952 9.86957 21.0111 9.85536 22.063 9.85536C22.6601 9.85536 22.7383 9.93354 22.7383 10.5306C22.7383 11.5399 22.7383 12.5422 22.7383 13.5515C22.7383 13.7363 22.7738 13.978 22.5108 13.9922C22.2194 14.0135 22.1981 13.7718 22.1839 13.5515C22.1057 12.2934 21.4944 11.3693 20.3642 10.8363C19.2554 10.3103 18.1679 10.4098 17.1301 11.0992C16.9737 11.2059 16.7036 11.2912 16.5686 11.2201C16.4335 11.149 16.3554 10.8789 16.3482 10.687C16.3198 9.94776 16.334 9.21564 16.334 8.48353Z" fill="#686877"/>
<path d="M20.3287 9.04504C19.8311 9.04504 19.3336 9.05215 18.836 9.04504C18.2887 9.03082 17.9831 8.71807 17.9759 8.17076C17.9688 7.51683 17.9688 6.87001 17.9759 6.21608C17.9831 5.85357 18.1394 5.6972 18.4948 5.69009C18.7934 5.68298 19.0848 5.67588 19.3833 5.69009C20.0586 5.73274 20.613 6.01706 21.0039 6.57858C21.402 7.15433 21.8 7.72296 22.1767 8.31292C22.262 8.45508 22.326 8.69675 22.262 8.81758C22.1981 8.93842 21.9564 9.01661 21.7929 9.03082C21.3025 9.05925 20.812 9.04504 20.3287 9.04504Z" fill="#686877"/>
<path d="M1.19437 8.04322C0.682399 8.04322 0.497522 7.94367 0.490412 7.65925C0.483301 7.36771 0.68951 7.24683 1.2157 7.24683C1.32236 7.24683 1.42902 7.23261 1.53568 7.25394C1.77744 7.2895 1.93387 7.4246 1.91254 7.68058C1.89832 7.91523 1.749 8.03611 1.51434 8.04322C1.40768 8.04322 1.30103 8.04322 1.19437 8.04322Z" fill="#686877"/>
</svg>
