<svg width="52" height="51" viewBox="0 0 52 51" fill="none" xmlns="http://www.w3.org/2000/svg">
<circle cx="8.05804" cy="6.66455" r="5.22143" fill="white"/>
<circle cx="44.2376" cy="24.4379" r="5.22143" fill="white"/>
<rect x="38.7558" y="1.5752" width="10.7031" height="10.7031" fill="white"/>
<rect x="26.0751" y="34.8511" width="10.7031" height="10.7031" transform="rotate(45 26.0751 34.8511)" fill="white"/>
<path d="M41.7149 40.0377L38.1879 42.2821L41.7149 44.687L44.1198 48.695L46.4444 44.687L50.0516 42.2821L46.4444 40.0377L44.1198 35.8693L41.7149 40.0377Z" fill="white"/>
<rect x="3.79547" y="37.0677" width="8.02105" height="10.7031" fill="white"/>
<path d="M22.6373 18.8208L19.594 24.3439L22.6373 30.5434H28.9495L32.5564 24.3439L29.7385 18.8208H22.6373Z" fill="white"/>
<path d="M26.0035 1.07986L20.0717 12.2221H32.5767L26.0035 1.07986Z" fill="white"/>
<path d="M8.04768 28.4145L4.03967 30.4986L4.68095 26.0898L1.47455 22.9636L5.64287 22.0818L8.04768 18.5548L9.97152 22.0818L13.8192 22.9636L11.0136 26.0898L12.1358 30.4986L8.04768 28.4145Z" fill="white"/>
<path d="M4.00038 31.7592C3.8112 31.7592 3.62202 31.7024 3.45176 31.5889C3.14907 31.3808 3.01665 31.0214 3.05448 30.6619L3.69769 26.5567L0.708662 23.6812C0.443811 23.4353 0.349222 23.0569 0.462729 22.7164C0.576237 22.3759 0.860005 22.111 1.21945 22.0543L5.32463 21.4111L7.10291 17.7032C7.25425 17.3816 7.57586 17.2113 7.9353 17.2113C7.9353 17.2113 7.9353 17.2113 7.95422 17.2113C8.31366 17.2113 8.63526 17.3626 8.80552 17.6843L10.6973 21.3732L14.8214 21.9029C15.1809 21.9408 15.4835 22.1867 15.597 22.5272C15.7106 22.8678 15.616 23.2461 15.37 23.492L12.4378 26.4243L13.1756 30.4349C13.1945 30.5106 13.2134 30.5863 13.2134 30.6619C13.2134 31.1916 12.7972 31.5889 12.2675 31.5889C12.1162 31.5889 11.9648 31.57 11.8324 31.5132L8.12448 29.6404L4.47332 31.6267C4.30306 31.7024 4.15172 31.7592 4.00038 31.7592ZM3.395 23.6434L5.38138 25.5352C5.6084 25.7433 5.7219 26.0649 5.66515 26.3676L5.23004 29.0539L7.63261 27.7486C7.89746 27.5972 8.23799 27.5972 8.52175 27.7297L10.9622 28.9782L10.4703 26.2919C10.4135 25.9892 10.5081 25.6676 10.7351 25.4595L12.6648 23.5299L9.95951 23.1704C9.65683 23.1326 9.37306 22.9434 9.24063 22.6597L7.97313 20.2192L6.80022 22.6975C6.6678 22.9813 6.40295 23.1704 6.10026 23.2272L3.395 23.6434Z" fill="#74CCD8"/>
<path d="M44.2766 49.9392C43.936 49.9392 43.6144 49.75 43.4442 49.4474L41.2119 45.38L37.1445 43.1477C36.8418 42.9774 36.6526 42.6558 36.6526 42.3153C36.6526 41.9748 36.8418 41.6532 37.1445 41.4829L41.2119 39.2506L43.4442 35.1833C43.6144 34.8806 43.936 34.6914 44.2766 34.6914C44.6171 34.6914 44.9387 34.8806 45.1089 35.1833L47.3223 39.2695L51.3897 41.5018C51.6924 41.6721 51.8816 41.9937 51.8816 42.3342C51.8816 42.6748 51.6924 42.9964 51.3897 43.1666L47.3223 45.38L45.09 49.4474C44.9387 49.75 44.6171 49.9392 44.2766 49.9392ZM39.5849 42.3342L42.3848 43.8666C42.5361 43.9612 42.6685 44.0747 42.7631 44.2449L44.2955 47.0448L45.8278 44.2449C45.9224 44.0936 46.0359 43.9612 46.2062 43.8666L49.006 42.3342L46.2062 40.8019C46.0548 40.7073 45.9224 40.5938 45.8278 40.4235L44.2955 37.6237L42.7631 40.4235C42.6685 40.5749 42.555 40.7073 42.3848 40.8019L39.5849 42.3342Z" fill="#74CCD8"/>
<path d="M29.6152 31.3997H22.7669C22.4264 31.3997 22.1237 31.2105 21.9534 30.9267L18.5293 24.9676C18.359 24.6838 18.359 24.3244 18.5293 24.0217L21.9534 18.0815C22.1237 17.7788 22.4264 17.6085 22.7669 17.6085H29.6152C29.9557 17.6085 30.2584 17.7977 30.4287 18.0815L33.8528 24.0406C34.0231 24.3244 34.0231 24.6838 33.8528 24.9865L30.4287 30.9456C30.2773 31.2294 29.9557 31.3997 29.6152 31.3997ZM23.3155 29.5079H29.0666L31.9421 24.4946L29.0666 19.4814H23.3155L20.44 24.4946L23.3155 29.5079Z" fill="#74CCD8"/>
<path d="M49.9141 13.2196H38.6958C38.1661 13.2196 37.7499 12.8034 37.7499 12.2737V1.05539C37.7499 0.525691 38.1661 0.109497 38.6958 0.109497H49.9141C50.4438 0.109497 50.86 0.525691 50.86 1.05539V12.2737C50.86 12.8034 50.4438 13.2196 49.9141 13.2196ZM39.6417 11.3278H48.9682V2.00129H39.6417V11.3278Z" fill="#74CCD8"/>
<path d="M12.1161 48.9744H3.94361C3.41391 48.9744 2.99771 48.5582 2.99771 48.0285V36.8102C2.99771 36.2805 3.41391 35.8643 3.94361 35.8643H12.1161C12.6458 35.8643 13.062 36.2805 13.062 36.8102V48.0285C13.062 48.5393 12.6458 48.9744 12.1161 48.9744ZM4.8895 47.0826H11.1702V37.7561H4.8895V47.0826Z" fill="#74CCD8"/>
<path d="M26.1911 50.1095C25.9451 50.1095 25.6992 50.0149 25.5289 49.8257L18.7753 43.072C18.605 42.9018 18.4915 42.6558 18.4915 42.4099C18.4915 42.164 18.5861 41.918 18.7753 41.7478L25.5289 34.9941C25.9073 34.6157 26.4938 34.6157 26.8721 34.9941L33.6258 41.7478C33.7961 41.918 33.9096 42.164 33.9096 42.4099C33.9096 42.6558 33.815 42.9018 33.6258 43.072L26.8721 49.8257C26.6829 50.0149 26.437 50.1095 26.1911 50.1095ZM20.7806 42.4099L26.1911 47.8204L31.6016 42.4099L26.1911 36.9994L20.7806 42.4099Z" fill="#74CCD8"/>
<path d="M32.6421 13.2385H19.759C19.4185 13.2385 19.1158 13.0493 18.9455 12.7656C18.7753 12.4818 18.7753 12.1035 18.9455 11.8197L25.3965 0.658128C25.5668 0.37436 25.8695 0.185181 26.21 0.185181C26.5505 0.185181 26.8532 0.37436 27.0235 0.658128L33.4366 11.744C33.5501 11.8954 33.6069 12.0845 33.6069 12.2926C33.588 12.8223 33.1718 13.2385 32.6421 13.2385ZM21.3859 11.3467H30.9962L26.1911 3.02287L21.3859 11.3467Z" fill="#74CCD8"/>
<path d="M44.3523 31.0213C40.72 31.0213 37.7688 28.0702 37.7688 24.4379C37.7688 20.8057 40.72 17.8545 44.3523 17.8545C47.9845 17.8545 50.9357 20.8057 50.9357 24.4379C50.9357 28.0702 47.9845 31.0213 44.3523 31.0213ZM44.3523 19.7463C41.7605 19.7463 39.6606 21.8462 39.6606 24.4379C39.6606 27.0297 41.7605 29.1296 44.3523 29.1296C46.944 29.1296 49.0439 27.0297 49.0439 24.4379C49.0439 21.8462 46.944 19.7463 44.3523 19.7463Z" fill="#74CCD8"/>
<path d="M8.0299 13.3142C4.39766 13.3142 1.44647 10.363 1.44647 6.73076C1.44647 3.09853 4.39766 0.128418 8.0299 0.128418C11.6621 0.128418 14.6133 3.07961 14.6133 6.71185C14.6133 10.3441 11.6621 13.3142 8.0299 13.3142ZM8.0299 2.02021C5.43815 2.02021 3.33826 4.1201 3.33826 6.71185C3.33826 9.3036 5.43815 11.4035 8.0299 11.4035C10.6217 11.4035 12.7215 9.3036 12.7215 6.71185C12.7215 4.1201 10.6217 2.02021 8.0299 2.02021Z" fill="#74CCD8"/>
</svg>
