<svg width="26" height="25" viewBox="0 0 26 25" fill="none" xmlns="http://www.w3.org/2000/svg">
<path d="M14.9019 24.4594C13.2487 24.4594 11.6222 24.5127 9.96899 24.4594C6.90259 24.3527 4.2095 22.059 3.43623 19.0718C2.36966 14.8311 1.27642 10.5904 0.15652 6.3497C-0.40343 4.24268 0.743135 2.72243 2.92961 2.77578C5.64937 2.88246 8.07582 4.80278 8.6891 7.46989C8.95574 8.59007 9.0624 9.73693 9.16906 10.8838C9.19572 11.2305 9.0624 11.6839 8.84908 11.9773C7.88917 13.2308 6.90259 14.4577 5.83602 15.6312C4.98276 16.5914 4.66279 17.6316 5.11608 18.8051C5.56938 19.9786 6.50263 20.6454 7.78251 20.6721C9.0624 20.6721 9.96899 20.032 10.5023 18.8584C10.6089 18.6184 10.6356 18.3517 10.7156 18.085C11.3022 16.5114 12.0755 15.978 13.7553 15.978C16.4751 15.978 19.1682 15.9513 21.8879 15.978C24.1544 16.0046 25.1143 17.0181 25.0077 19.2852C24.8477 22.059 22.6879 24.326 19.9414 24.4327C18.2616 24.5127 16.5817 24.4594 14.9019 24.4594Z" fill="#B7B8C5"/>
<path d="M10.6888 16.4045C9.8089 15.791 9.03563 15.2309 8.18237 14.6175C9.91555 12.1638 11.7287 9.60334 13.5419 7.04291C14.7951 5.20261 16.075 3.38897 17.3816 1.60201C17.9415 0.801877 18.7148 0.535166 19.568 1.12193C20.368 1.65535 20.4746 2.48216 19.968 3.22895C16.8749 7.65635 13.7552 12.0837 10.6888 16.4045Z" fill="#B7B8C5"/>
<path d="M7.8091 15.9777C6.71586 15.9777 5.83594 16.8578 5.83594 17.9513C5.83594 19.0448 6.71586 19.925 7.8091 19.925C8.90233 19.925 9.78225 19.0448 9.78225 17.9513C9.78225 16.8578 8.90233 15.9777 7.8091 15.9777ZM7.8091 18.8048C7.32914 18.8048 6.92917 18.4047 6.92917 17.9246C6.92917 17.4446 7.32914 17.0445 7.8091 17.0445C8.28905 17.0445 8.66235 17.4446 8.66235 17.9246C8.66235 18.4314 8.28905 18.8048 7.8091 18.8048Z" fill="#B7B8C5"/>
</svg>
