<svg width="31" height="31" viewBox="0 0 31 31" fill="none" xmlns="http://www.w3.org/2000/svg">
<path d="M0.015749 12.0086C0.187597 12.282 0.429745 12.368 0.750004 12.368C8.4675 12.3601 16.1928 12.3601 23.9103 12.3601C23.9962 12.3601 24.09 12.368 24.1759 12.3523C24.4493 12.3211 24.6367 12.1102 24.6445 11.8446C24.6524 11.5634 24.4571 11.3369 24.1759 11.3056C24.09 11.2978 24.004 11.2978 23.9103 11.2978C16.1928 11.2978 8.4675 11.2978 0.750004 11.29C0.429745 11.29 0.187597 11.3759 0.015749 11.6493C0.015749 11.7743 0.015749 11.8915 0.015749 12.0086Z" fill="#B7B8C5"/>
<path d="M12.201 0.580855C11.9276 0.705835 11.787 0.908927 11.7949 1.22138C11.8027 4.15059 11.7949 7.0798 11.7949 10.009C11.7949 10.0637 11.8027 10.1262 11.8105 10.2043C12.1542 10.2043 12.4901 10.2043 12.8494 10.2043C12.8572 10.0949 12.865 9.99339 12.865 9.88403C12.865 7.02512 12.865 4.16621 12.8728 1.29949C12.8728 0.971417 12.7869 0.729268 12.4979 0.573044C12.3963 0.580855 12.2948 0.580855 12.201 0.580855Z" fill="#B7B8C5"/>
<path d="M1.07788 11.4532C1.18724 11.9062 1.25754 14.3444 1.39033 14.7505C2.16364 17.1095 4.35859 18.7577 6.84257 18.7811C10.506 18.8124 14.1617 18.8202 17.8252 18.7811C20.7465 18.7499 23.2071 16.4846 23.5352 13.6179C23.543 13.571 23.543 11.5235 23.543 11.4532C16.0676 11.4532 8.61572 11.4532 1.07788 11.4532Z" fill="#B7B8C5"/>
<path d="M12.7178 10.212C12.7178 7.36091 12.7178 4.52543 12.7178 1.69777C12.6865 1.68214 12.6709 1.66652 12.6553 1.66652C11.1946 1.66652 7.72536 1.54935 6.30371 2.01803C3.17922 3.04911 1.12487 5.85334 1.08581 9.18092C1.078 9.51681 1.08581 9.8605 1.08581 10.2198C4.31185 10.212 9.50736 10.212 12.7178 10.212Z" fill="#B7B8C5"/>
<path d="M7.77227 19.9293C8.6315 20.6323 9.49855 21.3353 10.3578 22.0305C10.7562 22.3586 10.9671 22.757 10.7874 23.2647C10.7093 23.4912 10.5296 23.7021 10.35 23.8583C10.0141 24.1474 9.63134 24.3895 9.26421 24.6629C9.44387 24.9597 9.62353 25.2331 9.811 25.5456C10.0922 25.3347 10.3812 25.1238 10.6702 24.9129C10.9983 24.6707 11.3264 24.4208 11.6623 24.1786C12.1466 23.8271 12.6074 23.8271 13.0917 24.1864C13.6854 24.6238 14.279 25.0769 14.8805 25.5221C15.0601 25.2331 15.232 24.9597 15.4195 24.6629C15.0836 24.4207 14.7477 24.1708 14.404 23.9286C13.7088 23.4131 13.6854 22.6242 14.3571 22.0774C15.1695 21.4134 15.9975 20.7495 16.8177 20.0933C16.888 20.0387 16.9583 19.9684 17.0833 19.859C16.5208 19.859 16.0209 19.8512 15.5288 19.8668C15.4273 19.8668 15.3179 19.9605 15.232 20.0308C14.529 20.5932 13.8338 21.1635 13.1386 21.7259C12.5762 22.1789 12.0919 22.1711 11.5295 21.7181C10.8265 21.1478 10.1234 20.5698 9.41263 20.0074C9.31108 19.9215 9.15486 19.8668 9.02206 19.8668C8.61588 19.8512 8.2097 19.859 7.80351 19.859C7.78789 19.8824 7.78008 19.9059 7.77227 19.9293Z" fill="#B7B8C5"/>
<path d="M15.5479 27.421C15.5714 29.2087 16.9828 30.573 18.7705 30.573C20.5818 30.573 21.9932 29.1381 21.9697 27.3033C21.9462 25.4921 20.4877 24.1042 18.6529 24.1512C16.8887 24.1748 15.5244 25.6332 15.5479 27.421Z" fill="#B7B8C5"/>
<path d="M2.69436 27.421C2.71789 29.2087 4.12927 30.573 5.91703 30.573C7.7283 30.573 9.13969 29.1381 9.11617 27.3033C9.09264 25.4921 7.63421 24.1042 5.79941 24.1512C4.03518 24.1748 2.67084 25.6332 2.69436 27.421Z" fill="#B7B8C5"/>
<rect width="1.09568" height="6.31499" rx="0.547841" transform="matrix(0.707107 0.707107 0.707107 -0.707107 20.469 11.4532)" fill="#B7B8C5"/>
<rect width="1.09568" height="5.57673" rx="0.547841" transform="matrix(-1.39071e-07 1 1 1.39071e-07 24.4341 7.20979)" fill="#B7B8C5"/>
</svg>
