<svg width="26" height="26" viewBox="0 0 26 26" fill="none" xmlns="http://www.w3.org/2000/svg">
<path d="M7.19661 0.144043C7.52214 0.144043 7.84766 0.144043 8.17318 0.144043C8.22526 0.157064 8.28385 0.183105 8.33594 0.183105C9.53385 0.306803 10.5951 0.756022 11.5326 1.50472C11.7279 1.66097 11.9102 1.84326 12.099 2.01253C11.6693 2.20133 11.2721 2.3641 10.888 2.55941C10.7122 2.65055 10.6016 2.63753 10.4388 2.52035C8.25781 0.931803 5.14583 1.50472 3.79818 3.7443C3.23177 4.68831 3.04948 5.72347 3.04297 6.8042C3.03646 7.95003 3.04297 9.09587 3.04297 10.2482C3.04297 10.3198 3.04948 10.3914 3.05599 10.4761C3.14062 10.4761 3.21224 10.4761 3.28385 10.4761C5.10026 10.437 6.87109 10.1245 8.60937 9.59717C11.0703 8.85498 13.5443 8.83545 16.0247 9.46045C17.6003 9.85759 19.1563 10.3263 20.7969 10.424C21.2201 10.45 21.6497 10.4696 22.0924 10.4891C22.0924 10.2026 22.0794 9.96175 22.0924 9.71436C22.112 9.35628 22.3919 9.06982 22.7435 9.03076C23.0951 8.9917 23.4206 9.20654 23.5182 9.55811C23.5508 9.67529 23.5508 9.79899 23.5508 9.91618C23.5508 13.5425 23.5508 17.1753 23.5508 20.8016C23.5508 20.8927 23.5508 20.9839 23.5508 21.1076C23.7005 21.0034 23.8047 20.9253 23.9154 20.8602C24.3255 20.6258 24.7227 20.743 24.944 21.1597C24.9635 21.1987 24.9961 21.2378 25.0156 21.2769C25.0156 21.4071 25.0156 21.5373 25.0156 21.6675C24.8789 21.8302 24.7617 22.0256 24.599 22.1558C23.9349 22.7026 23.1797 23.0933 22.3854 23.4253C20.0612 24.3953 17.6263 24.8836 15.1198 25.0464C14.7096 25.0724 14.293 25.105 13.8828 25.1375C13.0365 25.1375 12.1901 25.1375 11.3437 25.1375C11.2266 25.1245 11.1029 25.0985 10.9857 25.0985C8.92839 25.0203 6.89714 24.7599 4.90495 24.2065C3.35547 23.7769 1.88411 23.1649 0.5625 22.2339C0.354167 22.0841 0.197917 21.8628 0.015625 21.674C0.015625 21.5438 0.015625 21.4136 0.015625 21.2834C0.158854 20.9969 0.354167 20.7235 0.699219 20.7625C0.998698 20.7951 1.27865 20.9578 1.57812 21.062C1.57812 20.9839 1.57812 20.8862 1.57812 20.7886C1.57812 16.1727 1.57161 11.5503 1.58464 6.93441C1.58464 6.35498 1.6237 5.76253 1.73437 5.18962C2.20312 2.74821 3.59635 1.10758 6.00521 0.391439C6.39583 0.280762 6.79948 0.228678 7.19661 0.144043ZM3.04297 20.756C3.04297 21.1206 3.04948 21.4591 3.03646 21.7977C3.02995 21.9344 3.08203 22.006 3.20573 22.0516C3.69401 22.2339 4.16927 22.4422 4.66406 22.5985C6.47396 23.1844 8.34245 23.4709 10.2435 23.5946C13.0625 23.7769 15.8685 23.6662 18.6419 23.0868C19.7552 22.8524 20.8424 22.5269 21.8906 22.0581C21.9687 22.0256 22.0729 21.9409 22.0794 21.8758C22.099 21.5047 22.0859 21.1336 22.0859 20.7495C15.7318 20.756 9.40365 20.756 3.04297 20.756ZM8.90234 15.6714C8.90234 16.1532 8.90234 16.6284 8.90234 17.1102C8.90234 17.5789 9.20833 17.911 9.63151 17.9175C10.0547 17.9175 10.3672 17.5855 10.3672 17.1167C10.3672 16.1532 10.3672 15.1831 10.3672 14.2196C10.3672 13.7508 10.0547 13.4253 9.625 13.4318C9.20833 13.4383 8.90885 13.7638 8.90234 14.2196C8.90234 14.6948 8.90234 15.1831 8.90234 15.6714ZM5.97266 15.6714C5.97266 16.1532 5.97266 16.6284 5.97266 17.1102C5.97266 17.5789 6.27865 17.911 6.70182 17.9175C7.125 17.9175 7.4375 17.5855 7.4375 17.1167C7.4375 16.1532 7.4375 15.1831 7.4375 14.2196C7.4375 13.7508 7.125 13.4253 6.69531 13.4318C6.27865 13.4383 5.97917 13.7638 5.97266 14.2196C5.97266 14.6948 5.97266 15.1831 5.97266 15.6714ZM11.832 15.6519C11.832 16.1466 11.832 16.6414 11.832 17.1362C11.8385 17.5855 12.151 17.9175 12.5677 17.911C12.9844 17.911 13.2969 17.5789 13.2969 17.1297C13.2969 16.1532 13.2969 15.1831 13.2969 14.2065C13.2969 13.7508 12.9974 13.4253 12.5742 13.4188C12.1445 13.4123 11.832 13.7378 11.832 14.2065C11.832 14.6948 11.832 15.1701 11.832 15.6519ZM14.7617 15.6714C14.7617 16.1532 14.7617 16.6284 14.7617 17.1102C14.7617 17.5789 15.0677 17.911 15.4909 17.9175C15.9141 17.9175 16.2266 17.5855 16.2266 17.1167C16.2266 16.1532 16.2266 15.1831 16.2266 14.2196C16.2266 13.7508 15.9141 13.4253 15.4844 13.4318C15.0677 13.4383 14.7682 13.7638 14.7617 14.2196C14.7617 14.6948 14.7617 15.1831 14.7617 15.6714ZM17.6914 15.6714C17.6914 16.1532 17.6914 16.6284 17.6914 17.1102C17.6914 17.5789 17.9974 17.911 18.4206 17.9175C18.8438 17.9175 19.1562 17.5855 19.1562 17.1167C19.1562 16.1532 19.1562 15.1831 19.1562 14.2196C19.1562 13.7508 18.8437 13.4253 18.4141 13.4318C17.9974 13.4383 17.6979 13.7638 17.6914 14.2196C17.6914 14.6948 17.6914 15.1831 17.6914 15.6714Z" fill="#B7B8C5"/>
<path d="M11.1745 6.16625C10.9531 6.39411 10.7383 6.61547 10.5169 6.83682C10.2174 7.1363 9.83984 7.15583 9.57942 6.8889C9.31901 6.62849 9.33854 6.25088 9.63802 5.9514C9.87239 5.71703 10.1068 5.48265 10.3411 5.24177C10.3477 5.23526 10.3542 5.21573 10.3737 5.17015C10.1198 4.92276 9.84635 4.66885 9.58593 4.40193C9.24088 4.04385 9.39062 3.49047 9.85937 3.36026C10.1003 3.29515 10.3086 3.36677 10.4844 3.54255C10.7122 3.77041 10.9401 4.00479 11.181 4.24568C11.793 3.78995 12.4831 3.54906 13.2057 3.39932C14.1953 3.19099 15.0547 3.56208 15.4453 4.39542C15.7578 5.05948 15.7057 5.71052 15.276 6.30297C14.8398 6.90193 14.2344 7.15583 13.4987 7.05818C12.6589 6.94099 11.8841 6.68057 11.1745 6.16625Z" fill="#B7B8C5"/>
</svg>
