<svg width="52" height="51" viewBox="0 0 52 51" fill="none" xmlns="http://www.w3.org/2000/svg">
<path d="M8.86334 41.0619C8.8459 38.7245 8.8459 38.7419 6.59568 38.1837C5.77584 37.9918 4.95599 37.7825 4.18847 37.4511C2.9151 36.8929 2.33946 35.8114 2.70577 34.4682C3.00231 33.3693 3.54306 32.3227 3.9966 31.2586C4.50246 30.0725 4.46757 29.9155 3.50818 29.0956C2.7581 28.4502 1.9557 27.8746 1.25796 27.1594C-0.0503052 25.7988 -0.0503052 24.3684 1.2754 23.0078C2.02548 22.2403 2.88021 21.5775 3.7175 20.9146C4.31058 20.4436 4.43268 19.9029 4.1187 19.24C3.7175 18.3679 3.28141 17.5131 2.93254 16.6235C2.13014 14.5826 2.82788 13.1174 4.93855 12.4545C5.89794 12.158 6.89222 11.9312 7.8865 11.7044C8.5668 11.5474 8.82845 11.1288 8.82845 10.4485C8.8459 9.34955 8.82845 8.23316 8.95056 7.15166C9.15988 5.33754 10.2937 4.41303 12.1253 4.58746C13.137 4.69212 14.1138 4.95378 15.1081 5.18054C15.9803 5.38987 16.6083 5.18054 17.0095 4.29092C17.4281 3.36642 17.8642 2.44191 18.405 1.58717C19.4167 -0.000187121 20.8471 -0.314171 22.4519 0.680111C23.3415 1.2383 24.1439 1.90116 24.9637 2.54657C25.6091 3.05243 26.2022 3.08732 26.8476 2.56401C27.493 2.02326 28.1559 1.49996 28.8536 1.01154C30.9469 -0.488606 32.5342 -0.122292 33.7902 2.14537C34.1739 2.86055 34.5402 3.59318 34.8717 4.32581C35.2205 5.12821 35.8136 5.35498 36.616 5.18054C37.4882 4.98866 38.3604 4.7619 39.25 4.62235C41.4828 4.27348 42.7038 5.21543 42.9306 7.46565C43.0178 8.39015 43.0178 9.33211 42.9829 10.2566C42.948 11.1462 43.3143 11.5998 44.1691 11.7916C45.0761 11.9835 45.9832 12.1754 46.8728 12.4545C49.0009 13.0999 49.6987 14.5826 48.8963 16.6409C48.5648 17.4782 48.1636 18.2806 47.7624 19.083C47.3612 19.868 47.4484 20.496 48.1985 21.0542C48.8788 21.5426 49.5242 22.0833 50.1522 22.659C51.9663 24.3161 51.9663 25.9732 50.1347 27.6304C49.4719 28.2409 48.7567 28.7991 48.0415 29.3398C47.4659 29.7934 47.3612 30.3167 47.6578 30.9446C48.0764 31.8343 48.5299 32.7239 48.8788 33.631C49.6638 35.6544 48.966 37.1197 46.9077 37.7825C45.9134 38.0965 44.9017 38.3233 43.8725 38.5675C43.2271 38.7245 42.9829 39.1257 42.9655 39.7536C42.948 40.8875 42.9655 42.0213 42.8433 43.1377C42.634 44.9169 41.5002 45.824 39.721 45.6495C38.7092 45.5449 37.7324 45.2832 36.7381 45.0739C35.5694 44.8471 35.3426 44.9344 34.8019 45.981C34.3309 46.8706 33.9297 47.8125 33.389 48.6673C32.3947 50.2023 30.9643 50.5337 29.4118 49.5569C28.5571 49.0161 27.7547 48.3707 26.9697 47.7253C26.2545 47.1322 25.5917 47.0974 24.8765 47.7079C24.2311 48.2486 23.5682 48.7719 22.8879 49.2604C20.8994 50.6384 19.3295 50.2895 18.1259 48.1614C17.777 47.5509 17.4979 46.9229 17.2014 46.295C16.4862 44.8297 16.3466 44.7774 14.7767 45.1262C14.0964 45.2832 13.4161 45.4402 12.7358 45.5449C10.3112 45.9286 9.10755 44.9518 8.89823 42.5097C8.82845 42.0562 8.86334 41.5678 8.86334 41.0619ZM40.5757 9.03557C40.5757 8.54715 40.5582 8.07617 40.5757 7.6052C40.5931 7.02956 40.3315 6.80279 39.7733 6.90745C38.9534 7.06445 38.1162 7.20399 37.2963 7.39587C35.081 7.91918 33.8076 7.36099 32.761 5.37242C32.3947 4.67468 32.0807 3.9595 31.7144 3.26175C31.1911 2.26747 31.0341 2.25003 30.1619 2.89544C29.4642 3.41875 28.8013 3.99438 28.0861 4.4828C26.5162 5.59919 25.2603 5.59919 23.6903 4.4828C23.0101 3.99438 22.3646 3.45363 21.6843 2.94777C20.7249 2.23259 20.5854 2.26747 20.0098 3.34897C19.6783 3.99438 19.3818 4.65724 19.0504 5.30265C17.9863 7.37843 16.7129 7.93662 14.4627 7.39587C13.6778 7.20399 12.8754 7.08189 12.073 6.90745C11.4101 6.76791 11.1833 7.06445 11.1833 7.69241C11.1833 8.73903 11.1484 9.78564 11.0787 10.8322C10.9915 12.5417 10.0321 13.536 8.40981 13.9372C7.57252 14.1465 6.71779 14.3384 5.8805 14.5652C4.81644 14.8443 4.72922 15.0361 5.16531 16.013C5.53163 16.8328 5.96771 17.6352 6.29914 18.4551C6.99688 20.2169 6.73523 21.3158 5.3223 22.5892C4.60712 23.2346 3.85705 23.8277 3.10697 24.4208C2.54878 24.8743 2.56623 25.3104 3.10697 25.7814C3.92682 26.4617 4.76411 27.142 5.56651 27.8571C6.6829 28.8689 6.94455 30.1074 6.36892 31.5028C6.02004 32.3576 5.61884 33.1949 5.23509 34.0496C4.71178 35.2358 4.78155 35.3927 6.05493 35.7067C6.87478 35.8986 7.69462 36.073 8.49703 36.2998C10.0321 36.7185 10.9566 37.6779 11.0612 39.3175C11.131 40.4165 11.1659 41.5154 11.1833 42.6318C11.1833 43.2075 11.4275 43.4342 11.9857 43.3296C12.8056 43.1726 13.6429 43.033 14.4627 42.8411C16.7129 42.3178 17.9863 42.876 19.0504 44.9518C19.4167 45.6495 19.7307 46.3647 20.097 47.045C20.6028 47.9521 20.7249 47.987 21.5273 47.3939C22.26 46.8531 22.9403 46.2775 23.6729 45.7542C25.2428 44.6378 26.4988 44.6378 28.0687 45.7542C28.7315 46.2252 29.3421 46.7485 30.0049 47.2543C31.0341 48.0393 31.1911 48.0044 31.7841 46.8357C32.0981 46.2252 32.3772 45.5798 32.6912 44.9518C33.7553 42.8935 35.0286 42.3178 37.2789 42.8586C38.0987 43.0505 38.9186 43.19 39.7558 43.347C40.3315 43.4517 40.5408 43.2075 40.5582 42.6318C40.5757 41.5503 40.5931 40.4863 40.6629 39.4048C40.7501 37.6953 41.7095 36.701 43.3318 36.2998C44.1691 36.0905 45.0238 35.8986 45.8611 35.6718C46.9251 35.3753 47.0124 35.2009 46.5763 34.224C46.2099 33.4042 45.7913 32.6018 45.4424 31.7819C44.7447 30.0201 45.0063 28.9212 46.4193 27.6478C47.1345 27.0024 47.8845 26.4268 48.6346 25.8162C49.1928 25.3627 49.1754 24.9092 48.6346 24.4557C47.8148 23.7754 46.9775 23.0951 46.1751 22.3799C45.0587 21.3681 44.797 20.1297 45.3727 18.7342C45.7215 17.8794 46.1227 17.0421 46.5065 16.1874C47.0298 15.0013 46.96 14.8617 45.6866 14.5303C44.8668 14.321 44.047 14.164 43.2446 13.9372C41.7095 13.5186 40.785 12.5592 40.6804 10.9195C40.6629 10.2741 40.628 9.64609 40.5757 9.03557Z" fill="#74CCD8"/>
<path d="M40.5757 9.03557C40.6106 9.64609 40.6454 10.2915 40.6978 10.9195C40.8024 12.5592 41.7444 13.5011 43.262 13.9372C44.0644 14.164 44.9017 14.321 45.7041 14.5303C46.9774 14.8443 47.0472 15.0013 46.5239 16.1874C46.1402 17.0421 45.739 17.8794 45.3901 18.7342C44.8144 20.1297 45.0761 21.3681 46.1925 22.3799C46.9949 23.0951 47.8322 23.7754 48.652 24.4557C49.1928 24.9092 49.2102 25.3627 48.652 25.8162C47.9194 26.4268 47.1519 27.0024 46.4367 27.6478C45.0238 28.9212 44.7621 30.0201 45.4599 31.7819C45.7913 32.6192 46.2274 33.4042 46.5937 34.224C47.0298 35.2009 46.9426 35.3753 45.8785 35.6718C45.0412 35.8986 44.1865 36.0905 43.3492 36.2998C41.7269 36.701 40.7675 37.6953 40.6803 39.4048C40.628 40.4688 40.5931 41.5503 40.5757 42.6318C40.5757 43.19 40.3489 43.4517 39.7733 43.347C38.9534 43.19 38.1161 43.0505 37.2963 42.8586C35.0461 42.3178 33.7727 42.8935 32.7086 44.9518C32.3947 45.5623 32.1156 46.2077 31.8016 46.8357C31.191 48.0044 31.0515 48.0393 30.0223 47.2544C29.3769 46.7659 28.749 46.2252 28.0861 45.7542C26.4987 44.6378 25.2602 44.6378 23.6903 45.7542C22.9577 46.2775 22.2774 46.8706 21.5448 47.3939C20.7249 47.987 20.6028 47.9695 20.1144 47.045C19.7306 46.3647 19.4167 45.6496 19.0678 44.9518C18.0037 42.8935 16.7478 42.3178 14.4801 42.8411C13.6603 43.033 12.8404 43.1726 12.0032 43.3296C11.445 43.4342 11.2008 43.2075 11.2008 42.6318C11.1833 41.5329 11.1484 40.4339 11.0787 39.3175C10.974 37.6779 10.0495 36.7185 8.51445 36.2998C7.71205 36.073 6.87476 35.9161 6.07236 35.7067C4.79898 35.3927 4.7292 35.2358 5.25251 34.0496C5.63627 33.1949 6.03747 32.3576 6.38634 31.5028C6.96198 30.1074 6.70032 28.8689 5.58394 27.8571C4.78154 27.142 3.94425 26.4617 3.1244 25.7814C2.56621 25.3278 2.54876 24.8917 3.1244 24.4208C3.87447 23.8102 4.62454 23.2172 5.33973 22.5892C6.75265 21.3158 7.01431 20.2169 6.31657 18.4551C5.98514 17.6178 5.54905 16.8328 5.18274 16.013C4.74665 15.0361 4.85131 14.8443 5.89792 14.5652C6.73521 14.3384 7.58994 14.1465 8.42723 13.9372C10.0495 13.536 10.9914 12.5417 11.0961 10.8323C11.1484 9.78564 11.1833 8.73903 11.2008 7.69241C11.2008 7.047 11.4275 6.76791 12.0904 6.90746C12.8753 7.08189 13.6777 7.204 14.4801 7.39587C16.7304 7.93662 18.0037 7.37843 19.0678 5.30265C19.3992 4.65724 19.6783 3.99439 20.0272 3.34897C20.5854 2.26748 20.7424 2.23259 21.7018 2.94777C22.3821 3.45364 23.01 3.99439 23.7078 4.4828C25.2951 5.59919 26.5336 5.59919 28.1035 4.4828C28.8187 3.97694 29.4816 3.4013 30.1793 2.89544C31.0515 2.25003 31.2085 2.26748 31.7318 3.26176C32.0981 3.9595 32.4121 4.67468 32.7784 5.37242C33.825 7.37843 35.0984 7.91918 37.3137 7.39587C38.1336 7.204 38.9534 7.06445 39.7907 6.90746C40.3489 6.80279 40.6106 7.02956 40.5931 7.6052C40.5757 8.07617 40.5757 8.54715 40.5757 9.03557ZM18.0386 34.381C18.2305 34.2415 18.6317 34.0322 18.9457 33.7182C24.1439 28.5374 29.342 23.3393 34.5402 18.1411C34.6798 18.0015 34.8367 17.862 34.9589 17.6876C35.2903 17.1643 35.3252 16.6409 34.8716 16.17C34.4181 15.7164 33.8774 15.7164 33.3715 16.0653C33.1796 16.1874 33.0226 16.3793 32.8656 16.5363C27.6849 21.717 22.5042 26.8803 17.3409 32.061C17.149 32.2529 16.9571 32.4273 16.8176 32.6541C16.3292 33.4565 16.8699 34.381 18.0386 34.381ZM24.1613 19.3273C24.1787 17.077 22.3123 15.1931 20.0795 15.2106C17.8816 15.2106 16.0326 17.0596 15.9977 19.2575C15.9628 21.4379 17.7944 23.3218 20.0097 23.3567C22.26 23.409 24.1439 21.5949 24.1613 19.3273ZM27.65 30.9272C27.65 33.1425 29.4641 34.9741 31.6795 35.009C33.8773 35.0439 35.8136 33.1425 35.7961 30.9272C35.7961 28.7293 33.9646 26.8803 31.7492 26.8629C29.499 26.8454 27.65 28.677 27.65 30.9272Z" fill="white"/>
<path d="M18.0386 34.381C16.8699 34.381 16.3291 33.4391 16.8001 32.6541C16.9222 32.4273 17.1315 32.2529 17.3234 32.061C22.5042 26.8803 27.6674 21.6996 32.8482 16.5363C33.0052 16.3793 33.1622 16.1874 33.354 16.0653C33.8773 15.7339 34.4181 15.7164 34.8542 16.17C35.3077 16.6235 35.2728 17.1642 34.9414 17.6875C34.8367 17.862 34.6797 17.9841 34.5228 18.1411C29.3246 23.3393 24.1264 28.5374 18.9282 33.7182C18.6317 34.0321 18.2305 34.2415 18.0386 34.381Z" fill="#74CCD8"/>
<path d="M24.1613 19.3272C24.1439 21.5775 22.26 23.409 20.0098 23.3567C17.8119 23.3218 15.9629 21.4379 15.9977 19.2575C16.0326 17.0421 17.8816 15.2106 20.0795 15.2106C22.3123 15.2106 24.1788 17.0945 24.1613 19.3272ZM20.097 17.5829C19.1027 17.5829 18.3875 18.2981 18.3875 19.2749C18.3875 20.2343 19.1201 21.0193 20.0621 21.0367C21.004 21.0542 21.8588 20.1994 21.8413 19.2575C21.8239 18.333 21.0389 17.5829 20.097 17.5829Z" fill="#74CCD8"/>
<path d="M27.65 30.9272C27.65 28.677 29.499 26.828 31.7667 26.8629C33.982 26.8803 35.8136 28.7293 35.8136 30.9272C35.8136 33.1426 33.8948 35.0613 31.6969 35.009C29.4642 34.9741 27.65 33.1426 27.65 30.9272ZM31.7318 32.6367C32.7261 32.6367 33.4238 31.9215 33.4413 30.9272C33.4413 29.9678 32.6912 29.1829 31.7493 29.1654C30.8247 29.148 29.9526 30.0202 29.97 30.9447C30.0049 31.9041 30.7899 32.6541 31.7318 32.6367Z" fill="#74CCD8"/>
<path d="M20.097 17.5829C21.0564 17.5829 21.8413 18.333 21.8588 19.2749C21.8762 20.2169 21.0215 21.0716 20.0795 21.0541C19.1376 21.0367 18.3875 20.2517 18.4049 19.2924C18.3875 18.2981 19.1027 17.5829 20.097 17.5829Z" fill="white"/>
<path d="M31.7318 32.6367C30.7899 32.6367 29.9875 31.8866 29.97 30.9621C29.9526 30.0376 30.8248 29.148 31.7493 29.1828C32.6912 29.2003 33.4413 29.9853 33.4413 30.9446C33.4239 31.9215 32.7261 32.6367 31.7318 32.6367Z" fill="white"/>
</svg>
