<svg width="26" height="18" viewBox="0 0 26 18" fill="none" xmlns="http://www.w3.org/2000/svg">
<path d="M8.82495 17.7071C8.82495 14.8811 8.82495 12.102 8.82495 9.19795C9.11379 9.62731 9.34018 9.96299 9.56657 10.2987C9.8398 10.7124 10.1052 11.1262 10.3941 11.5321C10.6439 11.8834 11.0576 11.9615 11.3933 11.7507C11.7446 11.5243 11.8461 11.1106 11.6041 10.728C11.2528 10.1738 10.8781 9.62731 10.4955 9.04182C10.839 9.0184 11.1357 9.04182 11.4167 8.97937C12.1271 8.81543 12.658 8.38607 12.9624 7.72251C13.0483 7.52735 13.1498 7.45709 13.3605 7.45709C17.1701 7.4649 20.9797 7.4649 24.7971 7.4649C24.8518 7.4649 24.8986 7.47271 25.0079 7.48051C25.0079 7.62103 25.0079 7.75374 25.0079 7.89426C25.0079 10.3767 25.0079 12.8592 25.0079 15.3495C25.0079 16.8171 24.1023 17.7305 22.6269 17.7305C18.1538 17.7383 13.6806 17.7305 9.19966 17.7305C9.08257 17.7227 8.96547 17.7149 8.82495 17.7071ZM18.3645 14.7952C19.3091 14.7952 20.2615 14.7952 21.2061 14.7952C21.7448 14.7952 22.0726 14.5064 22.0726 14.0614C22.0726 13.6165 21.7292 13.3198 21.2061 13.3198C19.3247 13.3198 17.4434 13.3198 15.562 13.3198C15.0155 13.3198 14.6642 13.6321 14.6799 14.0848C14.6955 14.5298 15.0155 14.7952 15.5698 14.7952C16.491 14.7952 17.4278 14.7952 18.3645 14.7952ZM18.3645 10.4236C17.4043 10.4236 16.4363 10.4236 15.4761 10.4236C14.9765 10.4236 14.672 10.689 14.6642 11.1184C14.6564 11.5633 14.9609 11.86 15.4761 11.8678C17.4043 11.8756 19.3247 11.8756 21.253 11.8678C21.7604 11.8678 22.0726 11.5633 22.0648 11.1184C22.057 10.689 21.7526 10.4236 21.253 10.4236C20.2928 10.4236 19.3325 10.4236 18.3645 10.4236Z" fill="#B7B8C5"/>
<path d="M25.0079 6.02067C24.8362 6.02067 24.6957 6.02067 24.5629 6.02067C20.8704 6.02067 17.178 6.02067 13.4855 6.02847C13.2122 6.02847 13.0561 5.96602 12.9156 5.69279C12.3223 4.5062 10.8625 4.10026 9.72272 4.77943C9.43387 4.95117 9.16064 5.14634 8.84058 5.35711C8.84058 3.61625 8.84058 1.92224 8.84058 0.181379C8.98109 0.173572 9.11381 0.157959 9.25432 0.157959C13.704 0.157959 18.146 0.157959 22.5957 0.157959C24.1258 0.157959 25.0157 1.05571 25.0157 2.57799C25.0079 3.70993 25.0079 4.84188 25.0079 6.02067Z" fill="#B7B8C5"/>
<path d="M7.34157 9.17454C7.34157 12.0708 7.34157 14.8655 7.34157 17.6993C7.21667 17.7071 7.09176 17.7227 6.96686 17.7227C5.42897 17.7227 3.89889 17.7305 2.361 17.7227C0.932408 17.7149 0.019043 16.8015 0.019043 15.3807C0.019043 12.8748 0.019043 10.3611 0.019043 7.85523C0.019043 7.73813 0.019043 7.62884 0.019043 7.4649C1.01047 7.4649 1.96287 7.4649 2.92307 7.47271C2.99333 7.47271 3.09482 7.54297 3.12604 7.61323C3.61005 8.68272 4.45316 9.1277 5.67878 9.01841C5.29626 9.59609 4.93716 10.1113 4.61709 10.65C4.5078 10.8373 4.39851 11.1184 4.46096 11.2901C4.54683 11.5087 4.77322 11.7429 4.99181 11.8288C5.31187 11.9615 5.60072 11.7897 5.78807 11.5009C6.21743 10.8607 6.63899 10.2284 7.06054 9.58828C7.1308 9.47899 7.20886 9.3697 7.34157 9.17454Z" fill="#B7B8C5"/>
<path d="M7.34163 0.212606C7.34163 1.91443 7.34163 3.60845 7.34163 5.37273C7.06059 5.18537 6.81078 5.02924 6.56878 4.8653C5.32754 4.06123 3.86772 4.45156 3.18855 5.74744C3.1339 5.85673 3.00119 5.99725 2.90751 5.99725C1.95512 6.02067 1.01052 6.01286 0.0190946 6.01286C0.0190946 5.12292 0.011288 4.2642 0.0190946 3.41329C0.0269011 2.89805 0.011288 2.36721 0.0971599 1.85979C0.245484 0.96984 1.04956 0.212606 1.96292 0.189187C3.71939 0.142347 5.47586 0.165767 7.22453 0.165767C7.26356 0.165767 7.29479 0.196993 7.34163 0.212606Z" fill="#B7B8C5"/>
<path d="M6.75607 6.75448C6.33452 7.02771 5.97542 7.28533 5.6007 7.4961C5.25722 7.69127 4.82786 7.56636 4.59366 7.2541C4.35947 6.94184 4.35166 6.55932 4.58586 6.24706C4.82005 5.9348 5.2338 5.83331 5.5929 5.98944C5.63974 6.01286 5.68658 6.03628 5.73342 6.0597C6.05348 6.27829 6.37355 6.49687 6.75607 6.75448Z" fill="#B7B8C5"/>
<path d="M9.38696 6.74668C9.81632 6.46565 10.1676 6.20803 10.5501 5.99725C10.8936 5.80209 11.3074 5.91919 11.5572 6.22364C11.7914 6.51249 11.7992 6.93404 11.5806 7.23069C11.362 7.52734 10.9405 7.68347 10.6126 7.51172C10.1988 7.30875 9.82413 7.03552 9.38696 6.74668Z" fill="#B7B8C5"/>
</svg>
