<svg width="26" height="26" viewBox="0 0 26 26" fill="none" xmlns="http://www.w3.org/2000/svg">
<path d="M12.5291 19.4583C12.8338 19.7865 13.0839 20.06 13.3417 20.3412C13.5918 20.6147 13.8887 20.7554 14.2481 20.6069C14.6153 20.4585 14.7013 20.1537 14.7013 19.7865C14.6935 17.3096 14.7013 14.8405 14.7013 12.3637C14.7013 12.223 14.7013 12.0824 14.7013 11.9183C14.8263 11.9105 14.9279 11.8948 15.0294 11.8948C16.5921 11.8948 18.1548 11.8948 19.7175 11.8948C20.3192 11.8948 20.5692 12.1449 20.5692 12.7465C20.5692 16.5751 20.5692 20.4038 20.5692 24.2246C20.5692 24.8496 20.3192 25.1075 19.7019 25.1075C14.9122 25.1075 10.1226 25.1075 5.33288 25.1075C4.73124 25.1075 4.47339 24.8496 4.47339 24.248C4.47339 21.2789 4.47339 18.3097 4.46558 15.3406C4.46558 15.1062 4.52808 14.9656 4.73905 14.8484C6.3877 13.9107 8.02854 12.9497 9.67719 12.012C9.84908 11.9105 10.0757 11.9027 10.3335 11.8323C10.3335 12.0589 10.3335 12.1996 10.3335 12.3402C10.3335 14.8015 10.3335 17.2627 10.3335 19.724C10.3335 20.099 10.3804 20.435 10.7711 20.5913C11.1696 20.7554 11.4743 20.5757 11.74 20.2866C11.9665 20.0365 12.2166 19.7865 12.5291 19.4583Z" fill="#B7B8C5"/>
<path d="M7.55179 5.4096C7.55179 4.65169 7.57523 3.93285 7.54398 3.22182C7.48147 1.80757 8.45035 0.487091 9.79427 0.182364C11.2163 -0.130177 12.6149 0.565226 13.1541 1.8779C13.3025 2.2295 13.3494 2.62799 13.451 3.02648C13.4979 3.00304 13.5916 2.97179 13.6698 2.92491C14.287 2.5733 14.9043 2.20606 15.5294 1.85446C16.0451 1.56536 16.4201 1.6513 16.7092 2.15918C17.1624 2.93272 17.6078 3.71407 18.0531 4.48761C18.3422 4.99549 18.2407 5.35491 17.725 5.65182C14.4199 7.56613 11.1069 9.48044 7.80182 11.3869C6.14536 12.3402 4.48889 13.3012 2.84024 14.2545C2.19954 14.6295 1.89481 14.5436 1.50413 13.8951C1.07439 13.184 0.652461 12.4652 0.222718 11.7542C-0.12889 11.1525 -0.042941 10.8087 0.558699 10.4728C1.24629 10.0821 1.93388 9.69141 2.66835 9.27729C2.07452 8.89443 1.64478 8.4178 1.41037 7.78491C0.972815 6.62851 1.30098 5.30021 2.22298 4.51886C3.18404 3.70626 4.53578 3.58124 5.62967 4.23758C6.20005 4.57356 6.75481 4.93298 7.3252 5.28459C7.39552 5.32365 7.47366 5.37053 7.55179 5.4096ZM9.01292 5.50336C9.0598 5.51899 9.11449 5.5268 9.16137 5.54243C9.88803 5.1205 10.6303 4.7142 11.3335 4.26102C11.9195 3.87815 12.0914 3.11243 11.8102 2.4561C11.5367 1.8232 10.896 1.48722 10.1849 1.60442C9.55986 1.706 9.04417 2.29201 9.02073 2.9796C8.99729 3.82346 9.01292 4.66732 9.01292 5.50336ZM6.98922 6.80041C6.20005 6.31597 5.48121 5.83153 4.71549 5.42523C4.12166 5.10488 3.37938 5.33147 2.97307 5.86279C2.57458 6.38629 2.56677 7.10513 2.96526 7.63645C3.36375 8.16777 4.09822 8.39436 4.69986 8.08964C5.46558 7.69896 6.19224 7.25359 6.98922 6.80041Z" fill="#B7B8C5"/>
<path d="M23.5382 8.90222C24.7649 9.05068 25.0306 9.19913 25.015 9.6992C24.9993 10.1914 24.7493 10.3243 23.5382 10.4571C23.5382 10.6759 23.546 10.9103 23.5382 11.1369C23.5226 11.5588 23.2335 11.8714 22.8428 11.887C22.4678 11.9026 22.124 11.5979 22.0927 11.1838C22.0771 10.9494 22.0927 10.715 22.0927 10.4259C21.8505 10.4259 21.6317 10.4337 21.4208 10.4259C20.9363 10.4102 20.6394 10.1211 20.6394 9.68357C20.6394 9.25383 20.9363 8.95692 21.4208 8.94129C21.6239 8.93347 21.8349 8.94129 22.0927 8.94129C22.0927 8.68344 22.0849 8.44904 22.0927 8.22245C22.1162 7.78489 22.4443 7.46454 22.8428 7.48016C23.2413 7.49579 23.5304 7.81614 23.546 8.26151C23.5382 8.46466 23.5382 8.66782 23.5382 8.90222Z" fill="#B7B8C5"/>
<path d="M11.8022 18.13C11.8022 16.0047 11.8022 13.981 11.8022 11.9183C12.2632 11.9183 12.7242 11.9183 13.2087 11.9183C13.2087 13.9498 13.2087 15.9813 13.2087 18.0831C12.7555 17.6612 12.3023 17.6065 11.8022 18.13Z" fill="#B7B8C5"/>
<path d="M21.3037 6.02686C20.9208 6.02686 20.5536 5.644 20.5614 5.26895C20.577 4.87828 20.9052 4.56573 21.3037 4.56573C21.7022 4.56573 22.0303 4.87828 22.046 5.26895C22.0538 5.644 21.6865 6.02686 21.3037 6.02686Z" fill="#B7B8C5"/>
<path d="M19.0922 9.67577C19.0922 10.0899 18.7484 10.4337 18.3499 10.4181C17.9593 10.4024 17.6467 10.0743 17.6467 9.67577C17.6467 9.26947 17.9905 8.91786 18.3812 8.93349C18.7797 8.95693 19.0922 9.28509 19.0922 9.67577Z" fill="#B7B8C5"/>
</svg>
