<svg width="30" height="31" viewBox="0 0 30 31" fill="none" xmlns="http://www.w3.org/2000/svg">
<path d="M1.96041 2.97942C-0.389852 5.42065 0.091167 8.01392 0.091167 15.8922C0.091167 22.4345 -1.05032 28.9931 4.92379 30.5371C6.7893 31.0169 23.3184 31.0169 25.1814 30.5346C27.6688 29.8928 29.6925 27.8753 29.9692 24.3574C30.0078 23.8664 30.0078 7.92669 29.968 7.42573C29.6739 3.67851 27.3672 1.51891 24.3278 1.08151C23.6312 0.980569 23.4916 0.950661 19.9176 0.94443C7.24041 0.950661 4.46146 0.386148 1.96041 2.97942Z" fill="url(#paint0_linear_219_4470)"/>
<path d="M15.0425 4.85618C10.5177 4.85618 6.22089 4.45367 4.57969 8.6657C3.90178 10.4053 4.00023 12.6646 4.00023 15.8997C4.00023 18.7384 3.90926 21.4065 4.57969 23.1324C6.21715 27.3469 10.5488 26.9432 15.04 26.9432C19.3729 26.9432 23.8404 27.3943 25.5015 23.1324C26.1807 21.3753 26.081 19.1497 26.081 15.8997C26.081 11.5855 26.319 8.80029 24.2267 6.70922C22.1082 4.59074 19.2433 4.85618 15.0375 4.85618H15.0425ZM14.053 6.8463C23.4915 6.83135 24.6928 5.78208 24.0298 20.3585C23.7943 25.5138 19.8689 24.9481 15.0437 24.9481C6.24581 24.9481 5.99284 24.6964 5.99284 15.8947C5.99284 6.99086 6.69069 6.85129 14.053 6.84381V6.8463ZM20.9368 8.67941C20.2053 8.67941 19.6122 9.27258 19.6122 10.0041C19.6122 10.7356 20.2053 11.3288 20.9368 11.3288C21.6683 11.3288 22.2615 10.7356 22.2615 10.0041C22.2615 9.27258 21.6683 8.67941 20.9368 8.67941ZM15.0425 10.2284C11.9109 10.2284 9.37244 12.7681 9.37244 15.8997C9.37244 19.0313 11.9109 21.5697 15.0425 21.5697C18.1741 21.5697 20.7113 19.0313 20.7113 15.8997C20.7113 12.7681 18.1741 10.2284 15.0425 10.2284ZM15.0425 12.2185C19.9088 12.2185 19.915 19.5809 15.0425 19.5809C10.1775 19.5809 10.17 12.2185 15.0425 12.2185Z" fill="white"/>
<defs>
<linearGradient id="paint0_linear_219_4470" x1="2.01776" y1="28.9421" x2="29.814" y2="4.88477" gradientUnits="userSpaceOnUse">
<stop stop-color="#FFDD55"/>
<stop offset="0.5" stop-color="#FF543E"/>
<stop offset="1" stop-color="#C837AB"/>
</linearGradient>
</defs>
</svg>
