<svg width="26" height="32" viewBox="0 0 26 32" fill="none" xmlns="http://www.w3.org/2000/svg">
<path d="M6.71583 20.492C6.71583 19.9469 6.71583 19.4414 6.71583 18.9359C6.70592 18.1926 6.73565 17.4492 6.67618 16.7059C6.44822 13.9703 3.68294 12.1565 1.07624 13.0188C0.967213 13.0585 0.858188 13.0882 0.640137 13.1477C0.768985 12.8008 0.848276 12.5332 0.957302 12.2656C1.61145 10.6896 2.55304 9.31195 3.76223 8.11267C5.75442 6.13039 7.72679 4.1382 9.71899 2.16583C12.4644 -0.559807 17.0138 -0.559807 19.7592 2.15592C20.453 2.83981 21.1369 3.5336 21.8307 4.21749C22.1974 4.5743 22.3461 4.99058 22.1281 5.47624C21.9298 5.94208 21.5334 6.09075 21.0378 6.09075C18.9366 6.08084 16.8453 6.07092 14.7441 6.09075C12.2266 6.12048 10.1551 7.72613 9.51085 10.1346C9.39191 10.5905 9.33244 11.0762 9.33244 11.5519C9.31262 13.4153 9.33244 15.2786 9.32253 17.1519C9.31262 18.6089 8.39086 19.9072 7.06273 20.4028C6.98344 20.4326 6.88432 20.4524 6.71583 20.492Z" fill="#B7B8C5"/>
<path d="M7.07255 26.984C7.07255 28.6293 7.07255 30.2052 7.07255 31.8406C5.2984 31.8009 3.49453 32.1577 1.92853 30.9585C0.719335 30.0268 0.0255364 28.8275 0.0255364 27.2813C0.015625 23.9115 0.015625 20.5515 0.015625 17.1816C0.015625 15.7445 1.01668 14.7038 2.38445 14.6839C3.78196 14.6641 4.84248 15.7048 4.85239 17.1519C4.87221 20.0064 4.85239 22.8608 4.8623 25.7153C4.8623 26.6866 5.14973 26.9741 6.13096 26.984C6.42831 26.984 6.71574 26.984 7.07255 26.984Z" fill="#B7B8C5"/>
<path d="M16.1216 17.806C14.5457 19.372 12.8806 21.0272 11.2254 22.6725C10.5019 23.396 9.78825 24.1295 9.04489 24.8332C8.8764 24.9918 8.59888 25.1008 8.37092 25.1206C7.84561 25.1603 7.32031 25.1305 6.72562 25.1305C6.72562 24.2583 6.71571 23.4258 6.73553 22.5932C6.73553 22.5139 6.92385 22.395 7.0527 22.3553C9.60984 21.6516 11.1957 19.6 11.2056 16.9536C11.2155 15.7345 11.2056 14.5154 11.2056 13.2963C11.2056 13.1377 11.2056 12.9791 11.2056 12.8701C12.831 14.4857 14.4466 16.1211 16.1216 17.806Z" fill="#B7B8C5"/>
<path d="M14.8926 21.7508C16.1711 20.4425 17.3308 19.0945 18.649 17.9349C20.7403 16.0914 23.684 16.7059 24.7445 19.1143C24.8337 19.3126 24.913 19.5108 24.9527 19.7189C25.2104 20.9975 24.6751 21.7805 23.3668 21.7607C20.6908 21.721 18.0147 21.7508 15.3386 21.7508C15.1998 21.7508 15.0512 21.7508 14.8926 21.7508Z" fill="#B7B8C5"/>
<path d="M11.3147 10.6698C11.731 9.03443 13.0591 7.97391 14.7143 7.964C16.3992 7.95409 18.0842 7.964 19.7691 7.964C19.898 7.964 20.0268 7.97391 20.2845 7.99373C19.898 8.39019 19.5907 8.72718 19.2636 9.03443C18.5996 9.66876 18.0346 10.3526 17.8067 11.2843C17.767 11.4627 17.4399 11.6709 17.2318 11.6907C16.7957 11.7204 16.4587 11.8691 16.1217 12.1466C15.2396 12.8602 14.0403 12.7909 13.188 11.9979C12.9104 11.7402 12.6428 11.4627 12.3356 11.2447C12.0283 11.0167 11.6814 10.868 11.3147 10.6698Z" fill="#B7B8C5"/>
<path d="M11.384 25.1008C11.9093 24.5953 12.3454 24.1592 12.8014 23.733C12.8707 23.6637 13.0095 23.6339 13.1185 23.6339C14.6845 23.624 16.2505 23.6339 17.8859 23.6339C16.8452 25.527 16.9642 27.3111 18.3815 29.0951C17.43 29.7493 16.4983 30.3935 15.5666 31.0377C15.5171 30.9981 15.4774 30.9684 15.4279 30.9287C15.9036 29.5312 15.7351 28.2229 14.9224 27.0236C14.0998 25.8243 12.95 25.2098 11.384 25.1008Z" fill="#B7B8C5"/>
<path d="M8.98535 31.8207C8.98535 30.1853 8.98535 28.6094 8.98535 27.0533C9.97649 27.0533 10.9676 26.9344 11.9092 27.0831C13.1878 27.2912 13.8717 28.3121 13.8023 29.5808C13.7428 30.7602 12.9202 31.6721 11.6813 31.8009C10.7892 31.8901 9.8972 31.8207 8.98535 31.8207Z" fill="#B7B8C5"/>
<path d="M21.4242 28.4707C20.0465 28.4509 19.0356 27.3903 19.0455 25.973C19.0653 24.6845 20.1655 23.624 21.4837 23.6339C22.8118 23.6438 23.9219 24.7638 23.8922 26.0622C23.8624 27.4597 22.8118 28.4905 21.4242 28.4707Z" fill="#B7B8C5"/>
</svg>
