<svg width="26" height="26" viewBox="0 0 26 26" fill="none" xmlns="http://www.w3.org/2000/svg">
<path d="M16.1198 18.3824C14.8384 19.6637 13.2601 19.6715 11.9944 18.398C10.2599 16.6713 8.53319 14.9368 6.80648 13.2101C5.5095 11.9131 5.51731 10.3505 6.80648 9.05348C9.45514 6.40482 12.1116 3.74835 14.7603 1.09969C16.0416 -0.173852 17.6043 -0.173852 18.8856 1.1075C20.5967 2.81858 22.2843 4.5531 24.0267 6.23293C25.0346 7.20176 25.3158 8.55344 24.6673 9.70197C24.6439 9.74103 18.0105 16.4916 16.1198 18.3824ZM20.081 9.47539C20.081 9.03785 20.0498 8.58469 19.9404 8.16278C19.4247 6.10011 17.2995 4.77187 15.2212 5.1469C13.3539 5.48287 11.8538 7.17051 11.7991 9.06129C11.7756 9.99105 12.0257 10.8271 12.5491 11.6396C12.3616 11.8037 12.1819 11.9522 12.0178 12.124C11.6897 12.4678 11.6741 12.9054 11.971 13.2023C12.2679 13.4992 12.7054 13.4913 13.0492 13.1554C13.2211 12.9835 13.3695 12.7882 13.5102 12.6241C15.4791 13.8586 17.5105 13.4523 18.7762 12.2491C19.37 11.6943 20.081 10.6005 20.081 9.47539Z" fill="#B7B8C5"/>
<path d="M5.04832 13.632C7.22038 15.804 9.3768 17.9604 11.5332 20.1091C10.9082 20.6169 10.0097 20.5466 9.34555 19.8903C8.2439 18.8043 7.15787 17.7026 6.06403 16.6088C5.78276 16.3275 5.48586 16.0462 5.2124 15.7493C4.64204 15.1477 4.58735 14.3039 5.04832 13.632Z" fill="#B7B8C5"/>
<path d="M0.727754 17.8198C1.10279 17.8042 1.49344 18.187 1.49344 18.562C1.49344 18.9371 1.14966 19.2809 0.76682 19.2965C0.376163 19.3043 0.0401972 18.9918 0.0167577 18.6011C-0.00668171 18.2105 0.337097 17.8354 0.727754 17.8198Z" fill="#B7B8C5"/>
<path d="M5.40003 18.5621C5.40003 18.9371 5.05625 19.2887 4.68122 19.2965C4.27493 19.3121 3.93115 18.9762 3.92334 18.5699C3.92334 18.1948 4.25149 17.8432 4.63434 17.8198C5.00937 17.8042 5.40003 18.1792 5.40003 18.5621Z" fill="#B7B8C5"/>
<path d="M2.68112 19.7731C3.05615 19.7575 3.44681 20.1403 3.44681 20.5154C3.44681 20.8904 3.10303 21.2342 2.72019 21.2498C2.32953 21.2576 1.99357 20.9451 1.97013 20.5544C1.94669 20.1638 2.29047 19.7887 2.68112 19.7731Z" fill="#B7B8C5"/>
<path d="M6.59543 19.7731C6.97046 19.7653 7.35331 20.1482 7.35331 20.5232C7.34549 20.8982 7.00171 21.242 6.62668 21.2498C6.23603 21.2576 5.90006 20.9451 5.88443 20.5466C5.86099 20.1638 6.20477 19.7888 6.59543 19.7731Z" fill="#B7B8C5"/>
<path d="M0.76682 23.2031C0.376163 23.2109 0.0401972 22.8984 0.0167577 22.5077C-0.00668171 22.1171 0.337097 21.742 0.727754 21.7264C1.10279 21.7108 1.49344 22.0936 1.48563 22.4687C1.49344 22.8437 1.14966 23.1953 0.76682 23.2031Z" fill="#B7B8C5"/>
<path d="M4.64215 23.2031C4.25149 23.1953 3.93115 22.8671 3.92334 22.4764C3.92334 22.0858 4.29056 21.7186 4.6734 21.7264C5.04062 21.742 5.40003 22.1014 5.40003 22.4686C5.40003 22.8593 5.03281 23.2109 4.64215 23.2031Z" fill="#B7B8C5"/>
<path d="M3.4468 24.4376C3.43898 24.8283 3.07176 25.1798 2.67329 25.1642C2.28264 25.1486 1.9623 24.8126 1.97011 24.422C1.97792 24.0391 2.31389 23.6953 2.68892 23.6875C3.07176 23.6719 3.45461 24.0548 3.4468 24.4376Z" fill="#B7B8C5"/>
<path d="M6.61875 23.6797C7.00159 23.6875 7.37663 24.0782 7.35319 24.4532C7.33756 24.836 6.98597 25.1642 6.60312 25.1564C6.19684 25.1564 5.86087 24.8048 5.8765 24.3985C5.89213 24.0235 6.24372 23.6797 6.61875 23.6797Z" fill="#B7B8C5"/>
<path d="M15.4635 6.63141C14.9556 7.80338 15.0728 8.71752 15.7994 9.42852C16.5026 10.1161 17.4167 10.2176 18.5028 9.73323C18.62 10.663 17.4246 11.7803 16.1745 11.9131C14.7134 12.0694 13.4086 10.9599 13.268 9.44414C13.143 8.10028 14.1899 6.74079 15.4635 6.63141Z" fill="#B7B8C5"/>
<path d="M18.0574 7.83463C18.0652 8.2331 17.7136 8.58469 17.3151 8.57688C16.9323 8.56907 16.5963 8.24091 16.5885 7.85807C16.5807 7.47522 16.9089 7.13145 17.2917 7.11582C17.698 7.10019 18.0496 7.43616 18.0574 7.83463Z" fill="#B7B8C5"/>
</svg>
