<svg width="17" height="16" viewBox="0 0 17 16" fill="none" xmlns="http://www.w3.org/2000/svg">
<path d="M11.9323 10.0629H11.205L10.9534 9.81132C11.85 8.77303 12.3897 7.42367 12.3897 5.94627C12.3897 2.66209 9.72758 0 6.44345 0C3.15931 0 0.497177 2.66209 0.497177 5.94627C0.497177 9.23045 3.15927 11.8925 6.44345 11.8925C7.92085 11.8925 9.27021 11.3528 10.3085 10.4608L10.5601 10.7124V11.4351L15.1341 16L16.4972 14.6369L11.9323 10.0629ZM6.44345 10.0629C4.17016 10.0629 2.32681 8.21955 2.32681 5.94627C2.32681 3.67299 4.17016 1.82963 6.44345 1.82963C8.71673 1.82963 10.5601 3.67299 10.5601 5.94627C10.5601 8.21955 8.71673 10.0629 6.44345 10.0629Z" fill="#090F24"/>
</svg>
