<svg width="31" height="31" viewBox="0 0 31 31" fill="none" xmlns="http://www.w3.org/2000/svg">
<rect x="0.00390625" y="0.896606" width="30" height="30" rx="3" fill="#28A9E0"/>
<path d="M23.6962 10.4109C23.0383 10.6995 22.3372 10.8908 21.6063 10.9837C22.3582 10.5347 22.9321 9.82925 23.2019 8.97891C22.5009 9.39689 21.7268 9.69214 20.9019 9.8569C20.2363 9.1481 19.2875 8.70911 18.2525 8.70911C16.2444 8.70911 14.6278 10.339 14.6278 12.3371C14.6278 12.6246 14.6521 12.9011 14.7118 13.1643C11.6964 13.0172 9.02819 11.5719 7.23573 9.37036C6.9228 9.91329 6.73924 10.5347 6.73924 11.2037C6.73924 12.4599 7.38612 13.5734 8.35035 14.218C7.76761 14.207 7.19593 14.0378 6.7116 13.7713C6.7116 13.7824 6.7116 13.7968 6.7116 13.8111C6.7116 15.5737 7.96886 17.0378 9.61756 17.375C9.32232 17.4557 9.00054 17.4944 8.6666 17.4944C8.43439 17.4944 8.19996 17.4812 7.97992 17.4325C8.44987 18.8689 9.78343 19.9249 11.3691 19.9592C10.1351 20.9245 8.56819 21.5062 6.87194 21.5062C6.57448 21.5062 6.28919 21.4929 6.00391 21.4564C7.61059 22.4925 9.51472 23.0841 11.5681 23.0841C18.2426 23.0841 21.8916 17.5553 21.8916 12.7629C21.8916 12.6025 21.8861 12.4477 21.8783 12.294C22.5982 11.7831 23.203 11.1451 23.6962 10.4109Z" fill="white"/>
</svg>
