<svg width="35" height="34" viewBox="0 0 35 34" fill="none" xmlns="http://www.w3.org/2000/svg">
<mask id="mask0_373_6628" style="mask-type:alpha" maskUnits="userSpaceOnUse" x="0" y="0" width="35" height="34">
<circle cx="17.9577" cy="17" r="17" fill="#7E8187"/>
</mask>
<g mask="url(#mask0_373_6628)">
<circle cx="17.9577" cy="17" r="17" fill="#B7B8C5"/>
<path d="M17.9577 16.8038C19.9528 16.8038 21.5702 14.8393 21.5702 12.416C21.5702 9.99259 21.0392 8.02811 17.9577 8.02811C14.8763 8.02811 14.3451 9.99259 14.3451 12.416C14.3451 14.8393 15.9626 16.8038 17.9577 16.8038Z" fill="#F4F5F9"/>
<path d="M11.1344 23.5035C11.1332 23.4619 11.1338 23.3557 11.1344 23.5035V23.5035Z" fill="#F4F5F9"/>
<path d="M24.7807 23.6197C24.7813 23.3375 24.7826 23.579 24.7807 23.6197V23.6197Z" fill="#F4F5F9"/>
<path d="M24.7729 23.3263C24.706 19.1048 24.1547 17.9019 19.9357 17.1404C19.9357 17.1404 19.3418 17.8972 17.9576 17.8972C16.5733 17.8972 15.9794 17.1404 15.9794 17.1404C11.8064 17.8936 11.2215 19.0786 11.1446 23.1891C11.1383 23.5248 11.1354 23.5424 11.1343 23.5035C11.1345 23.5765 11.1348 23.7115 11.1348 23.947C11.1348 23.947 12.1393 25.9719 17.9576 25.9719C23.7758 25.9719 24.7803 23.947 24.7803 23.947C24.7803 23.7957 24.7804 23.6905 24.7806 23.6189C24.7794 23.643 24.7772 23.5963 24.7729 23.3263Z" fill="#F4F5F9"/>
</g>
</svg>
