<svg width="28" height="25" viewBox="0 0 28 25" fill="none" xmlns="http://www.w3.org/2000/svg">
<g filter="url(#filter0_d_590_21185)">
<path d="M23.039 8.39187C23.039 11.34 16.984 15.7934 13.9565 18.0515C11.6115 15.7189 6.71287 11.7048 5.87907 11.1092C4.83681 10.3648 3.68288 3.66455 8.55914 3.66455C12.4601 3.66455 13.7828 5.9476 13.9565 7.08913C13.9565 5.19074 16.8972 3.66455 18.5722 3.66455C20.2473 3.66455 23.039 4.70671 23.039 8.39187Z" fill="url(#paint0_linear_590_21185)"/>
<path d="M14.9905 17.0997C14.5926 17.3526 14.2546 17.5566 14.0033 17.7044C13.7516 17.5545 13.4127 17.3476 13.0135 17.0913C12.1191 16.5168 10.9318 15.7003 9.74938 14.7276C8.56207 13.7509 7.40955 12.6408 6.56146 11.484C5.70515 10.316 5.22812 9.19457 5.22812 8.17424C5.22812 5.79064 7.1604 3.85831 9.54404 3.85831V3.85835L9.55184 3.85828C11.0076 3.84693 12.3686 4.57913 13.1613 5.80019L13.9951 7.08461L14.8359 5.80467C15.6356 4.58712 16.9956 3.8552 18.4523 3.85831C20.8324 3.87056 22.759 5.79672 22.7719 8.17671C22.7711 9.21877 22.2916 10.35 21.4377 11.5181C20.5904 12.6772 19.4389 13.7841 18.2525 14.7554C17.071 15.7227 15.8844 16.5316 14.9905 17.0997Z" stroke="url(#paint1_linear_590_21185)" stroke-width="2"/>
</g>
<defs>
<filter id="filter0_d_590_21185" x="0.228119" y="0.858154" width="27.5438" height="24" filterUnits="userSpaceOnUse" color-interpolation-filters="sRGB">
<feFlood flood-opacity="0" result="BackgroundImageFix"/>
<feColorMatrix in="SourceAlpha" type="matrix" values="0 0 0 0 0 0 0 0 0 0 0 0 0 0 0 0 0 0 127 0" result="hardAlpha"/>
<feOffset dy="2"/>
<feGaussianBlur stdDeviation="2"/>
<feComposite in2="hardAlpha" operator="out"/>
<feColorMatrix type="matrix" values="0 0 0 0 0.929412 0 0 0 0 0.607843 0 0 0 0 0.756863 0 0 0 0.2 0"/>
<feBlend mode="normal" in2="BackgroundImageFix" result="effect1_dropShadow_590_21185"/>
<feBlend mode="normal" in="SourceGraphic" in2="effect1_dropShadow_590_21185" result="shape"/>
</filter>
<linearGradient id="paint0_linear_590_21185" x1="14" y1="3.66455" x2="14" y2="18.0515" gradientUnits="userSpaceOnUse">
<stop stop-color="#ED9BC1"/>
<stop offset="1" stop-color="#ED9BB9"/>
</linearGradient>
<linearGradient id="paint1_linear_590_21185" x1="14" y1="2.85815" x2="14" y2="18.8582" gradientUnits="userSpaceOnUse">
<stop stop-color="#ED9BC1"/>
<stop offset="1" stop-color="#ED9BB9"/>
</linearGradient>
</defs>
</svg>
