<svg width="20" height="17" viewBox="0 0 20 17" fill="none" xmlns="http://www.w3.org/2000/svg">
<path d="M10.9905 14.3067C10.5926 14.5596 10.2546 14.7636 10.0033 14.9114C9.75162 14.7616 9.41269 14.5546 9.01355 14.2983C8.11909 13.7238 6.93176 12.9074 5.74938 11.9347C4.56207 10.9579 3.40956 9.84782 2.56146 8.69102C1.70515 7.52302 1.22812 6.4016 1.22812 5.38127C1.22812 2.99767 3.1604 1.06535 5.54404 1.06535V1.06538L5.55184 1.06532C7.00759 1.05396 8.36856 1.78617 9.16128 3.00722L9.99514 4.29164L10.8359 3.0117C11.6356 1.79415 12.9956 1.06223 14.4523 1.06534C16.8324 1.07759 18.759 3.00375 18.7719 5.38374C18.7711 6.4258 18.2916 7.55702 17.4377 8.72512C16.5904 9.88427 15.4389 10.9912 14.2525 11.9625C13.071 12.9297 11.8844 13.7386 10.9905 14.3067Z" stroke="#B7B8C5" stroke-width="2"/>
</svg>
